G04*
G04 #@! TF.GenerationSoftware,Altium Limited,Altium Designer,21.6.1 (37)*
G04*
G04 Layer_Physical_Order=2*
G04 Layer_Color=36540*
%FSLAX25Y25*%
%MOIN*%
G70*
G04*
G04 #@! TF.SameCoordinates,953C7FF0-8441-463C-8B19-84221F089CF9*
G04*
G04*
G04 #@! TF.FilePolarity,Positive*
G04*
G01*
G75*
%ADD57C,0.01000*%
%ADD68C,0.06299*%
%ADD70C,0.06496*%
%ADD72C,0.01968*%
G36*
X515551Y170374D02*
X366142D01*
Y234055D01*
Y326181D01*
X455050D01*
X455257Y325681D01*
X454912Y325337D01*
X454610Y324607D01*
Y323818D01*
X454912Y323089D01*
X455117Y322884D01*
X454912Y322679D01*
X454610Y321950D01*
Y321160D01*
X454912Y320431D01*
X455471Y319873D01*
X456200Y319571D01*
X456989D01*
X457719Y319873D01*
X457726Y319881D01*
X457734Y319873D01*
X458464Y319571D01*
X459253D01*
X459982Y319873D01*
X459990Y319881D01*
X459998Y319873D01*
X460727Y319571D01*
X461517D01*
X462246Y319873D01*
X462254Y319881D01*
X462262Y319873D01*
X462991Y319571D01*
X463780D01*
X464510Y319873D01*
X464518Y319881D01*
X464526Y319873D01*
X465255Y319571D01*
X466044D01*
X466774Y319873D01*
X466782Y319881D01*
X466789Y319873D01*
X467519Y319571D01*
X468308D01*
X469037Y319873D01*
X469045Y319881D01*
X469053Y319873D01*
X469782Y319571D01*
X470572D01*
X471301Y319873D01*
X471309Y319881D01*
X471317Y319873D01*
X472046Y319571D01*
X472836D01*
X473565Y319873D01*
X473573Y319881D01*
X473581Y319873D01*
X474310Y319571D01*
X475099D01*
X475829Y319873D01*
X475837Y319881D01*
X475844Y319873D01*
X476574Y319571D01*
X477363D01*
X478092Y319873D01*
X478651Y320431D01*
X478953Y321160D01*
Y321950D01*
X478651Y322679D01*
X478446Y322884D01*
X478651Y323089D01*
X478953Y323818D01*
Y324607D01*
X478651Y325337D01*
X478306Y325681D01*
X478513Y326181D01*
X482609D01*
X482816Y325681D01*
X482471Y325337D01*
X482169Y324607D01*
Y323818D01*
X482471Y323089D01*
X482676Y322884D01*
X482471Y322679D01*
X482169Y321950D01*
Y321160D01*
X482471Y320431D01*
X483030Y319873D01*
X483759Y319571D01*
X484548D01*
X485278Y319873D01*
X485285Y319881D01*
X485293Y319873D01*
X486023Y319571D01*
X486812D01*
X487541Y319873D01*
X487549Y319881D01*
X487557Y319873D01*
X488286Y319571D01*
X489076D01*
X489805Y319873D01*
X489813Y319881D01*
X489821Y319873D01*
X490550Y319571D01*
X491340D01*
X492069Y319873D01*
X492077Y319881D01*
X492085Y319873D01*
X492814Y319571D01*
X493603D01*
X494333Y319873D01*
X494891Y320431D01*
X495193Y321160D01*
Y321950D01*
X494891Y322679D01*
X494686Y322884D01*
X494891Y323089D01*
X495193Y323818D01*
Y324607D01*
X494891Y325337D01*
X494546Y325681D01*
X494753Y326181D01*
X515551D01*
Y170374D01*
D02*
G37*
%LPC*%
G36*
X372101Y322339D02*
X371009D01*
X369953Y322056D01*
X369007Y321510D01*
X368235Y320737D01*
X367688Y319791D01*
X367406Y318735D01*
Y317643D01*
X367688Y316587D01*
X368235Y315641D01*
X369007Y314868D01*
X369953Y314322D01*
X371009Y314039D01*
X372101D01*
X373157Y314322D01*
X374103Y314868D01*
X374876Y315641D01*
X375422Y316587D01*
X375705Y317643D01*
Y318735D01*
X375422Y319791D01*
X374876Y320737D01*
X374103Y321510D01*
X373157Y322056D01*
X372101Y322339D01*
D02*
G37*
G36*
X449214Y309071D02*
X448424D01*
X447695Y308769D01*
X447342Y308416D01*
X446990Y308769D01*
X446261Y309071D01*
X445471D01*
X444742Y308769D01*
X444184Y308211D01*
X443882Y307481D01*
Y306692D01*
X444184Y305963D01*
X444536Y305610D01*
X444184Y305258D01*
X443882Y304528D01*
Y303739D01*
X444184Y303010D01*
X444536Y302658D01*
X444184Y302305D01*
X443882Y301576D01*
Y300786D01*
X444184Y300057D01*
X444536Y299705D01*
X444184Y299352D01*
X443882Y298623D01*
Y297834D01*
X444184Y297104D01*
X444742Y296546D01*
X445471Y296244D01*
X446261D01*
X446990Y296546D01*
X447342Y296899D01*
X447695Y296546D01*
X448424Y296244D01*
X449214D01*
X449943Y296546D01*
X450501Y297104D01*
X450803Y297834D01*
Y298623D01*
X450501Y299352D01*
X450149Y299705D01*
X450501Y300057D01*
X450803Y300786D01*
Y301576D01*
X450501Y302305D01*
X450149Y302658D01*
X450501Y303010D01*
X450803Y303739D01*
Y304528D01*
X450501Y305258D01*
X450149Y305610D01*
X450501Y305963D01*
X450803Y306692D01*
Y307481D01*
X450501Y308211D01*
X449943Y308769D01*
X449214Y309071D01*
D02*
G37*
G36*
X372101Y312339D02*
X371009D01*
X369953Y312056D01*
X369007Y311509D01*
X368235Y310737D01*
X367688Y309791D01*
X367406Y308735D01*
Y307643D01*
X367688Y306587D01*
X368235Y305641D01*
X369007Y304869D01*
X369953Y304322D01*
X371009Y304039D01*
X372101D01*
X373157Y304322D01*
X374103Y304869D01*
X374876Y305641D01*
X375422Y306587D01*
X375705Y307643D01*
Y308735D01*
X375422Y309791D01*
X374876Y310737D01*
X374103Y311509D01*
X373157Y312056D01*
X372101Y312339D01*
D02*
G37*
G36*
X432973Y302279D02*
X432184D01*
X431455Y301977D01*
X430897Y301419D01*
X430594Y300690D01*
Y299901D01*
X430897Y299171D01*
X431455Y298613D01*
X432184Y298311D01*
X432973D01*
X433703Y298613D01*
X434261Y299171D01*
X434563Y299901D01*
Y300690D01*
X434261Y301419D01*
X433703Y301977D01*
X432973Y302279D01*
D02*
G37*
G36*
X372101Y302339D02*
X371009D01*
X369953Y302056D01*
X369007Y301509D01*
X368235Y300737D01*
X367688Y299791D01*
X367406Y298735D01*
Y297643D01*
X367688Y296587D01*
X368235Y295641D01*
X369007Y294868D01*
X369953Y294322D01*
X371009Y294039D01*
X372101D01*
X373157Y294322D01*
X374103Y294868D01*
X374876Y295641D01*
X375422Y296587D01*
X375705Y297643D01*
Y298735D01*
X375422Y299791D01*
X374876Y300737D01*
X374103Y301509D01*
X373157Y302056D01*
X372101Y302339D01*
D02*
G37*
G36*
X499024Y296000D02*
X498965D01*
Y292252D01*
X502713D01*
Y292311D01*
X502423Y293392D01*
X501864Y294360D01*
X501073Y295151D01*
X500104Y295710D01*
X499024Y296000D01*
D02*
G37*
G36*
X497964D02*
X497905D01*
X496825Y295710D01*
X495856Y295151D01*
X495065Y294360D01*
X494506Y293392D01*
X494216Y292311D01*
Y292252D01*
X497964D01*
Y296000D01*
D02*
G37*
G36*
X427363Y292535D02*
X426574D01*
X425844Y292233D01*
X425286Y291675D01*
X424984Y290946D01*
Y290157D01*
X425286Y289427D01*
X425844Y288869D01*
X426574Y288567D01*
X427363D01*
X428092Y288869D01*
X428651Y289427D01*
X428953Y290157D01*
Y290946D01*
X428651Y291675D01*
X428092Y292233D01*
X427363Y292535D01*
D02*
G37*
G36*
X419588D02*
X418798D01*
X418069Y292233D01*
X417511Y291675D01*
X417209Y290946D01*
Y290157D01*
X417511Y289427D01*
X418069Y288869D01*
X418798Y288567D01*
X419588D01*
X420317Y288869D01*
X420875Y289427D01*
X421177Y290157D01*
Y290946D01*
X420875Y291675D01*
X420317Y292233D01*
X419588Y292535D01*
D02*
G37*
G36*
X409745Y292437D02*
X408956D01*
X408226Y292135D01*
X407668Y291577D01*
X407366Y290847D01*
Y290058D01*
X407668Y289329D01*
X408226Y288771D01*
X408956Y288469D01*
X409745D01*
X410474Y288771D01*
X411033Y289329D01*
X411335Y290058D01*
Y290847D01*
X411033Y291577D01*
X410474Y292135D01*
X409745Y292437D01*
D02*
G37*
G36*
X404221D02*
X403432D01*
X402703Y292135D01*
X402145Y291577D01*
X401842Y290847D01*
Y290058D01*
X402145Y289329D01*
X402703Y288771D01*
X403432Y288469D01*
X404221D01*
X404951Y288771D01*
X405509Y289329D01*
X405811Y290058D01*
Y290847D01*
X405509Y291577D01*
X404951Y292135D01*
X404221Y292437D01*
D02*
G37*
G36*
X509024Y296000D02*
X507905D01*
X506825Y295710D01*
X505856Y295151D01*
X505065Y294360D01*
X504506Y293392D01*
X504216Y292311D01*
Y291193D01*
X504506Y290112D01*
X505065Y289144D01*
X505856Y288353D01*
X506825Y287793D01*
X507905Y287504D01*
X509024D01*
X510104Y287793D01*
X511073Y288353D01*
X511864Y289144D01*
X512423Y290112D01*
X512713Y291193D01*
Y292311D01*
X512423Y293392D01*
X511864Y294360D01*
X511073Y295151D01*
X510104Y295710D01*
X509024Y296000D01*
D02*
G37*
G36*
X502713Y291252D02*
X498965D01*
Y287504D01*
X499024D01*
X500104Y287793D01*
X501073Y288353D01*
X501864Y289144D01*
X502423Y290112D01*
X502713Y291193D01*
Y291252D01*
D02*
G37*
G36*
X497964D02*
X494216D01*
Y291193D01*
X494506Y290112D01*
X495065Y289144D01*
X495856Y288353D01*
X496825Y287793D01*
X497905Y287504D01*
X497964D01*
Y291252D01*
D02*
G37*
G36*
X443013Y288992D02*
X442223D01*
X441494Y288690D01*
X440936Y288132D01*
X440634Y287403D01*
Y286613D01*
X440936Y285884D01*
X441494Y285326D01*
X442223Y285024D01*
X443013D01*
X443742Y285326D01*
X444300Y285884D01*
X444602Y286613D01*
Y287403D01*
X444300Y288132D01*
X443742Y288690D01*
X443013Y288992D01*
D02*
G37*
G36*
X431485Y288390D02*
X430696D01*
X429967Y288088D01*
X429408Y287529D01*
X429106Y286800D01*
Y286011D01*
X429408Y285281D01*
X429967Y284723D01*
X430696Y284421D01*
X431485D01*
X432214Y284723D01*
X432773Y285281D01*
X433075Y286011D01*
Y286800D01*
X432773Y287529D01*
X432214Y288088D01*
X431485Y288390D01*
D02*
G37*
G36*
X372101Y292339D02*
X371009D01*
X369953Y292056D01*
X369007Y291510D01*
X368235Y290737D01*
X367688Y289791D01*
X367406Y288735D01*
Y287643D01*
X367688Y286587D01*
X368235Y285641D01*
X369007Y284869D01*
X369953Y284322D01*
X371009Y284039D01*
X372101D01*
X373157Y284322D01*
X374103Y284869D01*
X374876Y285641D01*
X375422Y286587D01*
X375705Y287643D01*
Y288735D01*
X375422Y289791D01*
X374876Y290737D01*
X374103Y291510D01*
X373157Y292056D01*
X372101Y292339D01*
D02*
G37*
G36*
X386910Y283972D02*
X386121D01*
X385392Y283670D01*
X384834Y283112D01*
X384531Y282383D01*
Y281593D01*
X384834Y280864D01*
X385392Y280306D01*
X386121Y280004D01*
X386910D01*
X387640Y280306D01*
X388198Y280864D01*
X388500Y281593D01*
Y282383D01*
X388198Y283112D01*
X387640Y283670D01*
X386910Y283972D01*
D02*
G37*
G36*
X509024Y286000D02*
X507905D01*
X506825Y285711D01*
X505856Y285151D01*
X505065Y284360D01*
X504506Y283392D01*
X504216Y282311D01*
Y281193D01*
X504506Y280112D01*
X505065Y279144D01*
X505856Y278353D01*
X506825Y277793D01*
X507905Y277504D01*
X509024D01*
X510104Y277793D01*
X511073Y278353D01*
X511864Y279144D01*
X512423Y280112D01*
X512713Y281193D01*
Y282311D01*
X512423Y283392D01*
X511864Y284360D01*
X511073Y285151D01*
X510104Y285711D01*
X509024Y286000D01*
D02*
G37*
G36*
X499024D02*
X497905D01*
X496825Y285711D01*
X495856Y285151D01*
X495065Y284360D01*
X494506Y283392D01*
X494216Y282311D01*
Y281193D01*
X494506Y280112D01*
X495065Y279144D01*
X495856Y278353D01*
X496825Y277793D01*
X497905Y277504D01*
X499024D01*
X500104Y277793D01*
X501073Y278353D01*
X501864Y279144D01*
X502423Y280112D01*
X502713Y281193D01*
Y282311D01*
X502423Y283392D01*
X501864Y284360D01*
X501073Y285151D01*
X500104Y285711D01*
X499024Y286000D01*
D02*
G37*
G36*
X372101Y282339D02*
X371009D01*
X369953Y282056D01*
X369007Y281509D01*
X368235Y280737D01*
X367688Y279791D01*
X367406Y278735D01*
Y277643D01*
X367688Y276587D01*
X368235Y275641D01*
X369007Y274868D01*
X369953Y274322D01*
X371009Y274039D01*
X372101D01*
X373157Y274322D01*
X374103Y274868D01*
X374876Y275641D01*
X375422Y276587D01*
X375705Y277643D01*
Y278735D01*
X375422Y279791D01*
X374876Y280737D01*
X374103Y281509D01*
X373157Y282056D01*
X372101Y282339D01*
D02*
G37*
G36*
X447934Y283677D02*
X447145D01*
X446415Y283375D01*
X445857Y282817D01*
X445555Y282088D01*
Y281298D01*
X445857Y280569D01*
X446308Y280118D01*
X445759Y279569D01*
X445457Y278840D01*
Y278050D01*
X445759Y277321D01*
X446317Y276763D01*
X446648Y276625D01*
X446766Y276036D01*
X446559Y275829D01*
X446256Y275099D01*
Y274310D01*
X446559Y273581D01*
X447117Y273023D01*
X447846Y272721D01*
X448635D01*
X449365Y273023D01*
X449923Y273581D01*
X450225Y274310D01*
Y275099D01*
X449923Y275829D01*
X449365Y276387D01*
X449033Y276524D01*
X448916Y277114D01*
X449123Y277321D01*
X449425Y278050D01*
Y278840D01*
X449123Y279569D01*
X448672Y280020D01*
X449222Y280569D01*
X449524Y281298D01*
Y282088D01*
X449222Y282817D01*
X448663Y283375D01*
X447934Y283677D01*
D02*
G37*
G36*
X453643Y273539D02*
X452853D01*
X452124Y273237D01*
X451566Y272679D01*
X451264Y271950D01*
Y271160D01*
X451566Y270431D01*
X452124Y269873D01*
X452853Y269571D01*
X453643D01*
X454372Y269873D01*
X454930Y270431D01*
X455232Y271160D01*
Y271950D01*
X454930Y272679D01*
X454372Y273237D01*
X453643Y273539D01*
D02*
G37*
G36*
X512713Y276000D02*
X504216D01*
Y267504D01*
X512713D01*
Y276000D01*
D02*
G37*
G36*
X499024D02*
X497905D01*
X496825Y275711D01*
X495856Y275151D01*
X495065Y274360D01*
X494506Y273392D01*
X494216Y272311D01*
Y271193D01*
X494506Y270112D01*
X495065Y269144D01*
X495856Y268353D01*
X496825Y267793D01*
X497905Y267504D01*
X499024D01*
X500104Y267793D01*
X501073Y268353D01*
X501864Y269144D01*
X502423Y270112D01*
X502713Y271193D01*
Y272311D01*
X502423Y273392D01*
X501864Y274360D01*
X501073Y275151D01*
X500104Y275711D01*
X499024Y276000D01*
D02*
G37*
G36*
X468111Y271374D02*
X467322D01*
X466593Y271072D01*
X466034Y270514D01*
X465732Y269784D01*
Y268995D01*
X466034Y268266D01*
X466593Y267708D01*
X467322Y267406D01*
X468111D01*
X468841Y267708D01*
X469399Y268266D01*
X469701Y268995D01*
Y269784D01*
X469399Y270514D01*
X468841Y271072D01*
X468111Y271374D01*
D02*
G37*
G36*
X385139Y270980D02*
X384349D01*
X383620Y270678D01*
X383062Y270120D01*
X382760Y269391D01*
Y268601D01*
X383062Y267872D01*
X383620Y267314D01*
X384349Y267012D01*
X385139D01*
X385868Y267314D01*
X386426Y267872D01*
X386728Y268601D01*
Y269391D01*
X386426Y270120D01*
X385868Y270678D01*
X385139Y270980D01*
D02*
G37*
G36*
X375705Y272339D02*
X367406D01*
Y264039D01*
X375705D01*
Y272339D01*
D02*
G37*
G36*
X454237Y266558D02*
X453448D01*
X452718Y266256D01*
X452160Y265698D01*
X451858Y264969D01*
Y264179D01*
X452160Y263450D01*
X452718Y262892D01*
X453448Y262590D01*
X454237D01*
X454966Y262892D01*
X455525Y263450D01*
X455827Y264179D01*
Y264969D01*
X455525Y265698D01*
X454966Y266256D01*
X454237Y266558D01*
D02*
G37*
G36*
X491635Y262614D02*
X490845D01*
X490116Y262312D01*
X489558Y261754D01*
X489256Y261025D01*
Y260235D01*
X489558Y259506D01*
X490116Y258948D01*
X490845Y258646D01*
X491635D01*
X492364Y258948D01*
X492922Y259506D01*
X493224Y260235D01*
Y261025D01*
X492922Y261754D01*
X492364Y262312D01*
X491635Y262614D01*
D02*
G37*
G36*
X487304Y258087D02*
X486515D01*
X485785Y257785D01*
X485227Y257226D01*
X484925Y256497D01*
Y255708D01*
X485004Y255517D01*
X484580Y255234D01*
X484490Y255324D01*
X483761Y255626D01*
X482971D01*
X482242Y255324D01*
X481684Y254766D01*
X481382Y254036D01*
Y253247D01*
X481684Y252518D01*
X481914Y252287D01*
X481707Y251787D01*
X481692D01*
X480963Y251485D01*
X480579Y251102D01*
X480061Y251123D01*
X479988Y251164D01*
X479470Y251682D01*
X478741Y251984D01*
X477952D01*
X477222Y251682D01*
X476664Y251124D01*
X476362Y250395D01*
Y249605D01*
X476664Y248876D01*
X477222Y248318D01*
X477952Y248016D01*
X478741D01*
X479470Y248318D01*
X479854Y248701D01*
X480372Y248680D01*
X480445Y248639D01*
X480963Y248121D01*
X481692Y247819D01*
X482481D01*
X483211Y248121D01*
X483769Y248679D01*
X484071Y249409D01*
Y250198D01*
X483769Y250927D01*
X483538Y251157D01*
X483745Y251658D01*
X483761D01*
X484490Y251960D01*
X485048Y252518D01*
X485350Y253247D01*
Y254036D01*
X485271Y254227D01*
X485695Y254510D01*
X485785Y254420D01*
X486515Y254118D01*
X487304D01*
X488033Y254420D01*
X488592Y254978D01*
X488894Y255708D01*
Y256497D01*
X488592Y257226D01*
X488033Y257785D01*
X487304Y258087D01*
D02*
G37*
G36*
X496556Y257988D02*
X495767D01*
X495037Y257686D01*
X494479Y257128D01*
X494177Y256399D01*
Y255609D01*
X494479Y254880D01*
X495037Y254322D01*
X495767Y254020D01*
X496556D01*
X497285Y254322D01*
X497844Y254880D01*
X498146Y255609D01*
Y256399D01*
X497844Y257128D01*
X497285Y257686D01*
X496556Y257988D01*
D02*
G37*
G36*
X453741Y254555D02*
X452952D01*
X452222Y254253D01*
X451664Y253695D01*
X451362Y252965D01*
Y252176D01*
X451664Y251447D01*
X452222Y250889D01*
X452952Y250587D01*
X453741D01*
X454470Y250889D01*
X455029Y251447D01*
X455331Y252176D01*
Y252965D01*
X455029Y253695D01*
X454470Y254253D01*
X453741Y254555D01*
D02*
G37*
G36*
X388387Y252575D02*
X387597D01*
X386868Y252273D01*
X386310Y251714D01*
X386008Y250985D01*
Y250196D01*
X386310Y249467D01*
X386868Y248908D01*
X387597Y248606D01*
X388387D01*
X389116Y248908D01*
X389674Y249467D01*
X389976Y250196D01*
Y250985D01*
X389674Y251714D01*
X389116Y252273D01*
X388387Y252575D01*
D02*
G37*
G36*
X474903Y249031D02*
X474113D01*
X473384Y248729D01*
X472826Y248171D01*
X472524Y247442D01*
Y246653D01*
X472826Y245923D01*
X473384Y245365D01*
X474113Y245063D01*
X474903D01*
X475632Y245365D01*
X476190Y245923D01*
X476492Y246653D01*
Y247442D01*
X476190Y248171D01*
X475632Y248729D01*
X474903Y249031D01*
D02*
G37*
G36*
X388387Y247063D02*
X387597D01*
X386868Y246761D01*
X386310Y246203D01*
X386008Y245473D01*
Y244684D01*
X386310Y243955D01*
X386868Y243397D01*
X387597Y243094D01*
X388387D01*
X389116Y243397D01*
X389674Y243955D01*
X389976Y244684D01*
Y245473D01*
X389674Y246203D01*
X389116Y246761D01*
X388387Y247063D01*
D02*
G37*
G36*
X478938Y246866D02*
X478149D01*
X477419Y246564D01*
X476861Y246006D01*
X476559Y245277D01*
Y244487D01*
X476861Y243758D01*
X477419Y243200D01*
X478149Y242898D01*
X478938D01*
X479667Y243200D01*
X480226Y243758D01*
X480528Y244487D01*
Y245277D01*
X480226Y246006D01*
X479667Y246564D01*
X478938Y246866D01*
D02*
G37*
G36*
X474903Y244307D02*
X474113D01*
X473384Y244005D01*
X472826Y243447D01*
X472524Y242718D01*
Y241928D01*
X472826Y241199D01*
X473384Y240641D01*
X474113Y240339D01*
X474903D01*
X475632Y240641D01*
X476190Y241199D01*
X476492Y241928D01*
Y242718D01*
X476190Y243447D01*
X475632Y244005D01*
X474903Y244307D01*
D02*
G37*
G36*
X470178D02*
X469389D01*
X468659Y244005D01*
X468101Y243447D01*
X467799Y242718D01*
Y241928D01*
X468101Y241199D01*
X468659Y240641D01*
X469389Y240339D01*
X470178D01*
X470907Y240641D01*
X471466Y241199D01*
X471768Y241928D01*
Y242718D01*
X471466Y243447D01*
X470907Y244005D01*
X470178Y244307D01*
D02*
G37*
G36*
X402363Y244110D02*
X401574D01*
X400844Y243808D01*
X400286Y243250D01*
X399984Y242521D01*
Y241731D01*
X400286Y241002D01*
X400844Y240444D01*
X401574Y240142D01*
X402363D01*
X403092Y240444D01*
X403651Y241002D01*
X403953Y241731D01*
Y242521D01*
X403651Y243250D01*
X403092Y243808D01*
X402363Y244110D01*
D02*
G37*
G36*
X453741Y243915D02*
X452952D01*
X452222Y243613D01*
X451664Y243055D01*
X451362Y242326D01*
Y241536D01*
X451664Y240807D01*
X452222Y240249D01*
X452952Y239947D01*
X453741D01*
X454470Y240249D01*
X455029Y240807D01*
X455331Y241536D01*
Y242326D01*
X455029Y243055D01*
X454470Y243613D01*
X453741Y243915D01*
D02*
G37*
G36*
X406824Y243134D02*
X406034D01*
X405305Y242832D01*
X404747Y242274D01*
X404445Y241544D01*
Y240755D01*
X404747Y240026D01*
X405305Y239467D01*
X406034Y239165D01*
X406824D01*
X407553Y239467D01*
X408111Y240026D01*
X408413Y240755D01*
Y241544D01*
X408111Y242274D01*
X407553Y242832D01*
X406824Y243134D01*
D02*
G37*
G36*
X410729Y240862D02*
X409940D01*
X409211Y240560D01*
X408652Y240002D01*
X408350Y239273D01*
Y238483D01*
X408652Y237754D01*
X409211Y237196D01*
X409940Y236894D01*
X410729D01*
X411459Y237196D01*
X412017Y237754D01*
X412319Y238483D01*
Y239273D01*
X412017Y240002D01*
X411459Y240560D01*
X410729Y240862D01*
D02*
G37*
G36*
X441863Y236992D02*
X441074D01*
X440344Y236690D01*
X439786Y236132D01*
X439484Y235403D01*
Y234613D01*
X439786Y233884D01*
X440344Y233326D01*
X441074Y233024D01*
X441863D01*
X442592Y233326D01*
X443151Y233884D01*
X443453Y234613D01*
Y235403D01*
X443151Y236132D01*
X442592Y236690D01*
X441863Y236992D01*
D02*
G37*
G36*
X464765Y234071D02*
X463975D01*
X463246Y233769D01*
X462688Y233211D01*
X462386Y232481D01*
Y232076D01*
X462386Y231987D01*
X461886Y231887D01*
X461843Y231991D01*
X461623Y232522D01*
X461065Y233080D01*
X460336Y233382D01*
X459546D01*
X458817Y233080D01*
X458259Y232522D01*
X457957Y231792D01*
Y231003D01*
X458259Y230274D01*
X458817Y229715D01*
X459546Y229413D01*
X460336D01*
X461065Y229715D01*
X461623Y230274D01*
X461925Y231003D01*
Y231409D01*
X461925Y231497D01*
X462425Y231597D01*
X462468Y231493D01*
X462688Y230963D01*
X463246Y230404D01*
X463975Y230102D01*
X464765D01*
X465494Y230404D01*
X466052Y230963D01*
X466354Y231692D01*
Y232481D01*
X466052Y233211D01*
X465494Y233769D01*
X464765Y234071D01*
D02*
G37*
G36*
X494489Y235154D02*
X493700D01*
X492971Y234852D01*
X492412Y234293D01*
X492110Y233564D01*
Y232775D01*
X492412Y232045D01*
X492971Y231487D01*
X493700Y231185D01*
X494489D01*
X495219Y231487D01*
X495777Y232045D01*
X496079Y232775D01*
Y233564D01*
X495777Y234293D01*
X495219Y234852D01*
X494489Y235154D01*
D02*
G37*
G36*
X426822Y232939D02*
X426032D01*
X425303Y232637D01*
X424745Y232079D01*
X424443Y231349D01*
Y230560D01*
X424745Y229831D01*
X425303Y229273D01*
X426032Y228971D01*
X426822D01*
X427551Y229273D01*
X428109Y229831D01*
X428411Y230560D01*
Y231349D01*
X428109Y232079D01*
X427551Y232637D01*
X426822Y232939D01*
D02*
G37*
G36*
X403347Y232299D02*
X402558D01*
X401829Y231997D01*
X401271Y231439D01*
X400969Y230710D01*
Y229920D01*
X401271Y229191D01*
X401829Y228633D01*
X402558Y228331D01*
X403347D01*
X404077Y228633D01*
X404635Y229191D01*
X404937Y229920D01*
Y230710D01*
X404635Y231439D01*
X404077Y231997D01*
X403347Y232299D01*
D02*
G37*
G36*
X420769Y231512D02*
X419979D01*
X419250Y231210D01*
X418692Y230651D01*
X418390Y229922D01*
Y229133D01*
X418692Y228404D01*
X419250Y227845D01*
X419979Y227543D01*
X420769D01*
X421498Y227845D01*
X422056Y228404D01*
X422358Y229133D01*
Y229922D01*
X422056Y230651D01*
X421498Y231210D01*
X420769Y231512D01*
D02*
G37*
G36*
X443013Y231315D02*
X442223D01*
X441494Y231013D01*
X440936Y230455D01*
X440634Y229725D01*
Y228936D01*
X440936Y228207D01*
X441494Y227648D01*
X442223Y227346D01*
X443013D01*
X443742Y227648D01*
X444300Y228207D01*
X444602Y228936D01*
Y229725D01*
X444300Y230455D01*
X443742Y231013D01*
X443013Y231315D01*
D02*
G37*
G36*
X424017Y226998D02*
X423227D01*
X422498Y226696D01*
X421940Y226138D01*
X421638Y225409D01*
Y224619D01*
X421940Y223890D01*
X422498Y223332D01*
X423227Y223029D01*
X424017D01*
X424746Y223332D01*
X425304Y223890D01*
X425606Y224619D01*
Y225409D01*
X425304Y226138D01*
X424746Y226696D01*
X424017Y226998D01*
D02*
G37*
G36*
X418013Y226984D02*
X417223D01*
X416494Y226682D01*
X415936Y226124D01*
X415634Y225395D01*
Y224605D01*
X415936Y223876D01*
X416494Y223318D01*
X417223Y223016D01*
X418013D01*
X418742Y223318D01*
X419300Y223876D01*
X419602Y224605D01*
Y225395D01*
X419300Y226124D01*
X418742Y226682D01*
X418013Y226984D01*
D02*
G37*
G36*
X429725Y226984D02*
X428936D01*
X428207Y226682D01*
X427649Y226124D01*
X427347Y225395D01*
Y224605D01*
X427649Y223876D01*
X428207Y223318D01*
X428936Y223016D01*
X429725D01*
X430455Y223318D01*
X431013Y223876D01*
X431315Y224605D01*
Y225395D01*
X431013Y226124D01*
X430455Y226682D01*
X429725Y226984D01*
D02*
G37*
G36*
X409351Y233480D02*
X408562D01*
X407833Y233178D01*
X407274Y232620D01*
X406972Y231891D01*
Y231101D01*
X407274Y230372D01*
X407833Y229814D01*
X408346Y229601D01*
X408565Y229477D01*
X408602Y229012D01*
X408449Y228643D01*
Y227853D01*
X408751Y227124D01*
X409309Y226566D01*
X409530Y226474D01*
X409708Y225960D01*
X409433Y225296D01*
Y224507D01*
X409735Y223778D01*
X410293Y223219D01*
X411023Y222917D01*
X411812D01*
X412541Y223219D01*
X413099Y223778D01*
X413402Y224507D01*
Y225296D01*
X413099Y226026D01*
X412541Y226584D01*
X412320Y226675D01*
X412142Y227189D01*
X412417Y227853D01*
Y228643D01*
X412115Y229372D01*
X411557Y229930D01*
X411044Y230143D01*
X410825Y230267D01*
X410788Y230732D01*
X410941Y231101D01*
Y231891D01*
X410639Y232620D01*
X410081Y233178D01*
X409351Y233480D01*
D02*
G37*
G36*
X372101Y230724D02*
X371009D01*
X369953Y230442D01*
X369007Y229895D01*
X368235Y229123D01*
X367688Y228176D01*
X367406Y227121D01*
Y226028D01*
X367688Y224973D01*
X368235Y224027D01*
X369007Y223254D01*
X369953Y222708D01*
X371009Y222425D01*
X372101D01*
X373157Y222708D01*
X374103Y223254D01*
X374876Y224027D01*
X375422Y224973D01*
X375705Y226028D01*
Y227121D01*
X375422Y228176D01*
X374876Y229123D01*
X374103Y229895D01*
X373157Y230442D01*
X372101Y230724D01*
D02*
G37*
G36*
X464765Y229543D02*
X463975D01*
X463246Y229241D01*
X462688Y228683D01*
X462386Y227954D01*
Y227164D01*
X462688Y226435D01*
X463246Y225877D01*
X463975Y225575D01*
X464273D01*
X464372Y225075D01*
X463738Y224812D01*
X463180Y224254D01*
X462878Y223525D01*
Y222735D01*
X463180Y222006D01*
X463738Y221448D01*
X464467Y221146D01*
X465257D01*
X465986Y221448D01*
X466544Y222006D01*
X466847Y222735D01*
Y223525D01*
X466544Y224254D01*
X465986Y224812D01*
X465257Y225114D01*
X464959D01*
X464860Y225614D01*
X465494Y225877D01*
X466052Y226435D01*
X466354Y227164D01*
Y227954D01*
X466052Y228683D01*
X465494Y229241D01*
X464765Y229543D01*
D02*
G37*
G36*
X387385Y221391D02*
X386596D01*
X385867Y221089D01*
X385308Y220531D01*
X385006Y219802D01*
Y219012D01*
X385308Y218283D01*
X385867Y217725D01*
X386596Y217423D01*
X387385D01*
X388115Y217725D01*
X388673Y218283D01*
X388975Y219012D01*
Y219802D01*
X388673Y220531D01*
X388115Y221089D01*
X387385Y221391D01*
D02*
G37*
G36*
X501576Y221177D02*
X500786D01*
X500057Y220875D01*
X499499Y220317D01*
X499197Y219588D01*
Y218798D01*
X499499Y218069D01*
X500057Y217511D01*
X500786Y217209D01*
X501576D01*
X502305Y217511D01*
X502863Y218069D01*
X503165Y218798D01*
Y219588D01*
X502863Y220317D01*
X502305Y220875D01*
X501576Y221177D01*
D02*
G37*
G36*
X372101Y220724D02*
X372055D01*
Y217075D01*
X375705D01*
Y217121D01*
X375422Y218177D01*
X374876Y219123D01*
X374103Y219895D01*
X373157Y220442D01*
X372101Y220724D01*
D02*
G37*
G36*
X371055D02*
X371009D01*
X369953Y220442D01*
X369007Y219895D01*
X368235Y219123D01*
X367688Y218177D01*
X367406Y217121D01*
Y217075D01*
X371055D01*
Y220724D01*
D02*
G37*
G36*
X467528Y219701D02*
X466739D01*
X466010Y219399D01*
X465452Y218841D01*
X465150Y218111D01*
Y217322D01*
X465452Y216593D01*
X466010Y216034D01*
X466739Y215732D01*
X467528D01*
X468258Y216034D01*
X468816Y216593D01*
X469118Y217322D01*
Y218111D01*
X468816Y218841D01*
X468258Y219399D01*
X467528Y219701D01*
D02*
G37*
G36*
X475485Y213697D02*
X474696D01*
X473967Y213395D01*
X473713Y213141D01*
X473459Y213395D01*
X472729Y213697D01*
X471940D01*
X471211Y213395D01*
X470652Y212837D01*
X470350Y212107D01*
Y211318D01*
X470652Y210589D01*
X471107Y210134D01*
Y209589D01*
X460126Y198608D01*
X455051D01*
X454466Y198492D01*
X453970Y198160D01*
X448699Y192890D01*
X448628Y192903D01*
X448626Y192904D01*
X448358Y193458D01*
X448539Y193897D01*
Y194686D01*
X448237Y195415D01*
X447679Y195974D01*
X446950Y196275D01*
X446160D01*
X445431Y195974D01*
X444873Y195415D01*
X444571Y194686D01*
Y193897D01*
X444873Y193167D01*
X445431Y192609D01*
X446160Y192307D01*
X446766D01*
X446990Y191824D01*
X446841Y191675D01*
X446539Y190946D01*
Y190156D01*
X446841Y189427D01*
X447400Y188869D01*
X448129Y188567D01*
X448918D01*
X449648Y188869D01*
X450206Y189427D01*
X450508Y190156D01*
Y190373D01*
X454444Y194308D01*
X455008Y194165D01*
X455207Y193683D01*
X455766Y193125D01*
X456495Y192823D01*
X457284D01*
X458014Y193125D01*
X458438Y193549D01*
X461588D01*
X462174Y193666D01*
X462670Y193997D01*
X475794Y207122D01*
X476126Y207618D01*
X476242Y208203D01*
Y210058D01*
X476773Y210589D01*
X477075Y211318D01*
Y212107D01*
X476773Y212837D01*
X476215Y213395D01*
X475485Y213697D01*
D02*
G37*
G36*
X494981Y216453D02*
X494192D01*
X493463Y216151D01*
X492904Y215593D01*
X492602Y214863D01*
Y214074D01*
X492904Y213345D01*
X493463Y212786D01*
X494192Y212484D01*
X494981D01*
X495711Y212786D01*
X496269Y213345D01*
X496571Y214074D01*
Y214863D01*
X496269Y215593D01*
X495711Y216151D01*
X494981Y216453D01*
D02*
G37*
G36*
X375705Y216075D02*
X372055D01*
Y212425D01*
X372101D01*
X373157Y212708D01*
X374103Y213254D01*
X374876Y214027D01*
X375422Y214973D01*
X375705Y216028D01*
Y216075D01*
D02*
G37*
G36*
X371055D02*
X367406D01*
Y216028D01*
X367688Y214973D01*
X368235Y214027D01*
X369007Y213254D01*
X369953Y212708D01*
X371009Y212425D01*
X371055D01*
Y216075D01*
D02*
G37*
G36*
X487304Y209957D02*
X486515D01*
X485785Y209655D01*
X485227Y209096D01*
X484925Y208367D01*
Y207578D01*
X485227Y206849D01*
X485785Y206290D01*
X486515Y205988D01*
X487304D01*
X488033Y206290D01*
X488592Y206849D01*
X488894Y207578D01*
Y208367D01*
X488592Y209096D01*
X488033Y209655D01*
X487304Y209957D01*
D02*
G37*
G36*
X372101Y210724D02*
X371009D01*
X369953Y210442D01*
X369007Y209895D01*
X368235Y209123D01*
X367688Y208176D01*
X367406Y207121D01*
Y206029D01*
X367688Y204973D01*
X368235Y204027D01*
X369007Y203254D01*
X369953Y202708D01*
X371009Y202425D01*
X372101D01*
X373157Y202708D01*
X374103Y203254D01*
X374876Y204027D01*
X375422Y204973D01*
X375705Y206029D01*
Y207121D01*
X375422Y208176D01*
X374876Y209123D01*
X374103Y209895D01*
X373157Y210442D01*
X372101Y210724D01*
D02*
G37*
G36*
X480028Y211630D02*
X479239D01*
X478510Y211328D01*
X477952Y210770D01*
X477650Y210040D01*
Y209251D01*
X477900Y208647D01*
Y206592D01*
X475950Y204642D01*
X475590D01*
X474860Y204340D01*
X474302Y203782D01*
X474000Y203052D01*
Y202263D01*
X474302Y201534D01*
X474860Y200975D01*
X475590Y200673D01*
X476379D01*
X477108Y200975D01*
X477666Y201534D01*
X477969Y202263D01*
Y202335D01*
X480511Y204877D01*
X480842Y205373D01*
X480959Y205958D01*
Y208164D01*
X481316Y208522D01*
X481618Y209251D01*
Y210040D01*
X481316Y210770D01*
X480758Y211328D01*
X480028Y211630D01*
D02*
G37*
G36*
X501182Y207102D02*
X500393D01*
X499663Y206800D01*
X499105Y206242D01*
X498803Y205513D01*
Y204723D01*
X499105Y203994D01*
X499663Y203436D01*
X499972Y203308D01*
X500286Y202785D01*
Y201996D01*
X500588Y201267D01*
X501146Y200709D01*
X501876Y200406D01*
X502665D01*
X503394Y200709D01*
X503953Y201267D01*
X504255Y201996D01*
Y202785D01*
X503953Y203515D01*
X503394Y204073D01*
X503086Y204201D01*
X502772Y204723D01*
Y205513D01*
X502470Y206242D01*
X501911Y206800D01*
X501182Y207102D01*
D02*
G37*
G36*
X478741Y197949D02*
X477952D01*
X477222Y197647D01*
X476664Y197089D01*
X476362Y196359D01*
Y195570D01*
X476664Y194841D01*
X477222Y194282D01*
X477952Y193980D01*
X478741D01*
X479470Y194282D01*
X480029Y194841D01*
X480331Y195570D01*
Y196359D01*
X480029Y197089D01*
X479470Y197647D01*
X478741Y197949D01*
D02*
G37*
G36*
X381891Y196866D02*
X381101D01*
X380372Y196564D01*
X379814Y196006D01*
X379512Y195277D01*
Y194487D01*
X379814Y193758D01*
X380372Y193200D01*
X381101Y192898D01*
X381891D01*
X382620Y193200D01*
X383178Y193758D01*
X383480Y194487D01*
Y195277D01*
X383178Y196006D01*
X382620Y196564D01*
X381891Y196866D01*
D02*
G37*
G36*
X372101Y200724D02*
X371009D01*
X369953Y200442D01*
X369007Y199895D01*
X368235Y199123D01*
X367688Y198177D01*
X367406Y197121D01*
Y196028D01*
X367688Y194973D01*
X368235Y194027D01*
X369007Y193254D01*
X369953Y192708D01*
X371009Y192425D01*
X372101D01*
X373157Y192708D01*
X374103Y193254D01*
X374876Y194027D01*
X375422Y194973D01*
X375705Y196028D01*
Y197121D01*
X375422Y198177D01*
X374876Y199123D01*
X374103Y199895D01*
X373157Y200442D01*
X372101Y200724D01*
D02*
G37*
G36*
X401182Y194012D02*
X400393D01*
X399663Y193710D01*
X399105Y193151D01*
X398803Y192422D01*
Y191633D01*
X399105Y190904D01*
X399663Y190345D01*
X400393Y190043D01*
X401182D01*
X401911Y190345D01*
X402470Y190904D01*
X402772Y191633D01*
Y192422D01*
X402470Y193151D01*
X401911Y193710D01*
X401182Y194012D01*
D02*
G37*
G36*
X418013Y191354D02*
X417223D01*
X416494Y191052D01*
X415936Y190494D01*
X415634Y189765D01*
Y188975D01*
X415936Y188246D01*
X416494Y187688D01*
X417223Y187386D01*
X418013D01*
X418742Y187688D01*
X419300Y188246D01*
X419602Y188975D01*
Y189765D01*
X419300Y190494D01*
X418742Y191052D01*
X418013Y191354D01*
D02*
G37*
G36*
X505414Y193421D02*
X504625D01*
X503896Y193119D01*
X503337Y192561D01*
X503035Y191832D01*
Y191042D01*
X503337Y190313D01*
X503591Y190059D01*
X503337Y189805D01*
X503035Y189076D01*
Y188286D01*
X503337Y187557D01*
X503896Y186999D01*
X504625Y186697D01*
X505414D01*
X506144Y186999D01*
X506702Y187557D01*
X507004Y188286D01*
Y189076D01*
X506702Y189805D01*
X506448Y190059D01*
X506702Y190313D01*
X507004Y191042D01*
Y191832D01*
X506702Y192561D01*
X506144Y193119D01*
X505414Y193421D01*
D02*
G37*
G36*
X436555Y189325D02*
X435765D01*
X435036Y189023D01*
X434478Y188465D01*
X434176Y187736D01*
Y186946D01*
X434478Y186217D01*
X435036Y185659D01*
X435765Y185357D01*
X436555D01*
X437284Y185659D01*
X437685Y186060D01*
X438167Y185577D01*
X438896Y185275D01*
X439686D01*
X440415Y185577D01*
X440973Y186135D01*
X441275Y186865D01*
Y187654D01*
X440973Y188383D01*
X440415Y188942D01*
X439686Y189244D01*
X438896D01*
X438167Y188942D01*
X437766Y188541D01*
X437284Y189023D01*
X436555Y189325D01*
D02*
G37*
G36*
X383269Y187122D02*
X382479D01*
X381750Y186820D01*
X381192Y186262D01*
X380890Y185532D01*
Y184743D01*
X381192Y184014D01*
X381750Y183456D01*
X382479Y183153D01*
X383269D01*
X383998Y183456D01*
X384556Y184014D01*
X384858Y184743D01*
Y185532D01*
X384556Y186262D01*
X383998Y186820D01*
X383269Y187122D01*
D02*
G37*
G36*
X372101Y190724D02*
X371009D01*
X369953Y190442D01*
X369007Y189895D01*
X368235Y189123D01*
X367688Y188177D01*
X367406Y187121D01*
Y186029D01*
X367688Y184973D01*
X368235Y184027D01*
X369007Y183254D01*
X369953Y182708D01*
X371009Y182425D01*
X372101D01*
X373157Y182708D01*
X374103Y183254D01*
X374876Y184027D01*
X375422Y184973D01*
X375705Y186029D01*
Y187121D01*
X375422Y188177D01*
X374876Y189123D01*
X374103Y189895D01*
X373157Y190442D01*
X372101Y190724D01*
D02*
G37*
G36*
X401084Y185153D02*
X400294D01*
X399565Y184851D01*
X399007Y184293D01*
X398705Y183564D01*
Y182775D01*
X399007Y182045D01*
X399565Y181487D01*
X400294Y181185D01*
X401084D01*
X401813Y181487D01*
X402371Y182045D01*
X402673Y182775D01*
Y183564D01*
X402371Y184293D01*
X401813Y184851D01*
X401084Y185153D01*
D02*
G37*
G36*
X485926Y188205D02*
X485137D01*
X484408Y187903D01*
X483849Y187345D01*
X483547Y186615D01*
Y185826D01*
X483849Y185097D01*
X484143Y184802D01*
X484243Y184195D01*
X483941Y183466D01*
Y182676D01*
X484243Y181947D01*
X484801Y181389D01*
X485531Y181087D01*
X486320D01*
X487049Y181389D01*
X487607Y181947D01*
X487909Y182676D01*
Y183466D01*
X487607Y184195D01*
X487313Y184489D01*
X487214Y185097D01*
X487516Y185826D01*
Y186615D01*
X487214Y187345D01*
X486656Y187903D01*
X485926Y188205D01*
D02*
G37*
G36*
X512206Y181217D02*
X511416D01*
X510687Y180914D01*
X510613Y180840D01*
X509942Y181118D01*
X509153D01*
X508423Y180816D01*
X507865Y180258D01*
X507563Y179528D01*
Y178739D01*
X507865Y178010D01*
X507873Y178002D01*
X507865Y177994D01*
X507563Y177265D01*
Y176475D01*
X507865Y175746D01*
X508423Y175188D01*
X509153Y174886D01*
X509942D01*
X510671Y175188D01*
X510745Y175262D01*
X511416Y174984D01*
X512206D01*
X512935Y175286D01*
X513493Y175845D01*
X513795Y176574D01*
Y177363D01*
X513493Y178093D01*
X513485Y178100D01*
X513493Y178108D01*
X513795Y178838D01*
Y179627D01*
X513493Y180356D01*
X512935Y180914D01*
X512206Y181217D01*
D02*
G37*
G36*
X502396Y181413D02*
X501606D01*
X500877Y181111D01*
X500319Y180553D01*
X500017Y179824D01*
Y179034D01*
X500319Y178305D01*
X500877Y177747D01*
X501606Y177445D01*
X502396D01*
X503125Y177747D01*
X503683Y178305D01*
X503985Y179034D01*
Y179824D01*
X503683Y180553D01*
X503125Y181111D01*
X502396Y181413D01*
D02*
G37*
G36*
X375705Y180724D02*
X367406D01*
Y172425D01*
X375705D01*
Y180724D01*
D02*
G37*
G36*
X436123Y175409D02*
X435334D01*
X434604Y175107D01*
X434046Y174549D01*
X433744Y173820D01*
Y173030D01*
X434046Y172301D01*
X434604Y171743D01*
X435334Y171441D01*
X436123D01*
X436852Y171743D01*
X437410Y172301D01*
X437713Y173030D01*
Y173820D01*
X437410Y174549D01*
X436852Y175107D01*
X436123Y175409D01*
D02*
G37*
%LPD*%
D57*
X461588Y195079D02*
X474713Y208203D01*
Y210577D02*
X474905Y210770D01*
X457846Y195079D02*
X461588D01*
X472520Y210770D02*
Y211527D01*
X474713Y208203D02*
Y210577D01*
X456890Y194807D02*
X457075Y194992D01*
X455051Y197079D02*
X460760D01*
X457760Y194992D02*
X457846Y195079D01*
X457075Y194992D02*
X457760D01*
X474905Y210770D02*
Y211527D01*
X472520Y210770D02*
X472713Y210577D01*
X460760Y197079D02*
X472713Y209032D01*
Y210577D01*
X448524Y190551D02*
X455051Y197079D01*
X476128Y202658D02*
X479429Y205958D01*
X475984Y202658D02*
X476128D01*
X479449Y209460D02*
X479634Y209646D01*
X479449Y208775D02*
Y209460D01*
X479429Y205958D02*
Y208756D01*
X479449Y208775D01*
X474905Y211527D02*
X475091Y211713D01*
X472335D02*
X472520Y211527D01*
D68*
X371555Y216575D02*
D03*
D70*
X498465Y291752D02*
D03*
D72*
X498524Y200984D02*
D03*
Y196654D02*
D03*
X414370Y300197D02*
D03*
X401575Y317913D02*
D03*
X502454Y185039D02*
D03*
X492126Y192913D02*
D03*
X496063Y187008D02*
D03*
X494095Y228346D02*
D03*
X487205Y239173D02*
D03*
X488189Y241142D02*
D03*
X457677Y252953D02*
D03*
X457283Y267913D02*
D03*
X459646Y276575D02*
D03*
X427165Y297244D02*
D03*
X422244D02*
D03*
X403543D02*
D03*
X407480D02*
D03*
X429134Y218504D02*
D03*
X423228D02*
D03*
X417323D02*
D03*
X400591Y212598D02*
D03*
X389440Y189409D02*
D03*
X452756Y222441D02*
D03*
Y219488D02*
D03*
X455709D02*
D03*
Y222441D02*
D03*
X461614Y201772D02*
D03*
X458661D02*
D03*
X461614Y204724D02*
D03*
X458661D02*
D03*
X476870Y269587D02*
D03*
X409425Y249186D02*
D03*
X415331Y263950D02*
D03*
X418283Y249186D02*
D03*
X427165Y257874D02*
D03*
X415331Y252139D02*
D03*
X409425Y263950D02*
D03*
X412378Y258044D02*
D03*
X418307Y266732D02*
D03*
X415354D02*
D03*
X409425Y252139D02*
D03*
X418283Y258044D02*
D03*
X409449Y266732D02*
D03*
X415331Y255092D02*
D03*
X427165Y249016D02*
D03*
Y254921D02*
D03*
X424189Y258044D02*
D03*
X421236Y260997D02*
D03*
X412378Y249186D02*
D03*
X421236D02*
D03*
X409425Y260997D02*
D03*
X418283Y263950D02*
D03*
X412378Y252139D02*
D03*
X421236Y255092D02*
D03*
X418283Y260997D02*
D03*
X412378Y255092D02*
D03*
X421236Y252139D02*
D03*
X427165Y251969D02*
D03*
X424189Y260997D02*
D03*
X415331D02*
D03*
X409425Y255092D02*
D03*
X421236Y258044D02*
D03*
X418283Y252139D02*
D03*
X412378Y263950D02*
D03*
X421260Y266732D02*
D03*
X427165Y260827D02*
D03*
X421236Y263950D02*
D03*
X427165Y266732D02*
D03*
X418283Y255092D02*
D03*
X424189Y249186D02*
D03*
X424189Y252139D02*
D03*
X409425Y258044D02*
D03*
X427165Y263779D02*
D03*
X415331Y249186D02*
D03*
X412402Y266732D02*
D03*
X424213D02*
D03*
X412378Y260997D02*
D03*
X424189Y255092D02*
D03*
Y263950D02*
D03*
X415331Y258044D02*
D03*
X391043Y260039D02*
D03*
X384842Y247835D02*
D03*
X439567Y193996D02*
D03*
X434842Y197736D02*
D03*
Y193996D02*
D03*
X456496Y241931D02*
D03*
X398524Y231594D02*
D03*
X416240Y199803D02*
D03*
Y197539D02*
D03*
Y202067D02*
D03*
X418898Y199803D02*
D03*
Y197539D02*
D03*
Y202067D02*
D03*
X437205Y195866D02*
D03*
X439567Y197638D02*
D03*
X478642Y186417D02*
D03*
X478543Y181693D02*
D03*
X474902D02*
D03*
Y186417D02*
D03*
X476772Y184055D02*
D03*
X480610Y273425D02*
D03*
Y269685D02*
D03*
X480532Y262402D02*
D03*
X456890Y194807D02*
D03*
X448524Y190551D02*
D03*
X475984Y202658D02*
D03*
X479634Y209646D02*
D03*
X472335Y211713D02*
D03*
X475091D02*
D03*
M02*
