M48
;Layer_Color=9474304
;FILE_FORMAT=2:5
INCH,LZ
;TYPE=PLATED
T1F00S00C0.00787
T2F00S00C0.01181
T3F00S00C0.04331
%
T01
X0498524Y0196654
Y0200984
T02
X0474902Y0181693
X0478543
X0476772Y0184055
X0474902Y0186417
X0478642
X0485532Y0186221
X0485925Y0183071
X0496063Y0187008
X0502454Y0185039
X0502001Y0179429
X0509547Y0179134
Y017687
X0511811Y0176969
Y0179232
X050502Y0188681
Y0191437
X050227Y0202391
X0500787Y0205118
X0501181Y0219193
X0494587Y0214469
X0486909Y0207972
X0479634Y0209646
X0475091Y0211713
X0472335
X0475984Y0202658
X0478346Y0195965
X0492126Y0192913
X0494095Y0228346
Y0233169
X0487205Y0239173
X0488189Y0241142
X0478543Y0244882
X0478346Y025
X0482087Y0249803
X0483366Y0253642
X0486909Y0256102
X049124Y026063
X0496161Y0256004
X0480532Y0262402
X048061Y0269685
Y0273425
X047687Y0269587
X0474508Y0247047
Y0242323
X0469783
X0456496Y0241931
X0453346
Y0252571
X0457677Y0252953
X0457283Y0267913
X0453842Y0264574
X0453248Y0271555
X0448241Y0274705
X0447441Y0278445
X0447539Y0281693
X0442618Y0287008
X043109Y0286405
X0426968Y0290551
X0427165Y0297244
X0422244
X0419193Y0290551
X040935Y0290453
X0403827
X0403543Y0297244
X040748
X041437Y0300197
X0432579Y0300295
X0445866Y0301181
Y0298228
X0448819
Y0301181
Y0304134
Y0307087
X0445866
Y0304134
X0459646Y0276575
X0467717Y026939
X046437Y0232087
Y0227559
X0464862Y022313
X0467134Y0217717
X0455709Y0219488
X0452756
Y0222441
X0455709
X0459941Y0231398
X0442618Y0229331
X0441468Y0235008
X0426427Y0230955
X0420374Y0229528
X0417618Y0225
X0423622Y0225014
X0429331Y0225
X0429134Y0218504
X0423228
X0417323
X0411417Y0224902
X0410433Y0228248
X0408957Y0231496
X0402953Y0230315
X0398524Y0231594
X0401968Y0242126
X0406429Y024115
X0410335Y0238878
X0409425Y0249186
X0412378
X0415331
X0418283
X0421236
X0424189
X0424189Y0252139
Y0255092
Y0258044
Y0260997
X0421236
X0418283
Y0258044
X0421236
Y0255092
Y0252139
X0418283
Y0255092
X0415331
Y0252139
X0412378
Y0255092
Y0258044
Y0260997
X0409425
Y0258044
Y0255092
Y0252139
Y026395
X0409449Y0266732
X0412402
X0412378Y026395
X0415331
X0415354Y0266732
X0418307
X0418283Y026395
X0421236
X042126Y0266732
X0424213
X0424189Y026395
X0427165Y0263779
Y0260827
Y0257874
Y0254921
Y0251969
Y0249016
Y0266732
X0415331Y0260997
Y0258044
X0391043Y0260039
X0387992Y025059
X0387992Y0245079
X0384842Y0247835
X0384744Y0268996
X0386516Y0281988
X0386991Y0219407
X0400591Y0212598
X0400787Y0192028
X0400689Y0183169
X038944Y0189409
X0382874Y0185138
X0381496Y0194882
X041624Y0197539
Y0199803
Y0202067
X0418898
Y0199803
Y0197539
X0417618Y018937
X043616Y0187341
X0439291Y0187259
X0439567Y0193996
Y0197638
X0437205Y0195866
X0434842Y0193996
Y0197736
X0446555Y0194291
X0448524Y0190551
X045689Y0194807
X0458661Y0201772
X0461614
Y0204724
X0458661
X0435728Y0173425
X0456595Y0321555
X0458858
X0461122
X0463386
X046565
X0467913
Y0324213
X046565
X0463386
X0461122
X0458858
X0456595
X0401575Y0317913
X0470177Y0321555
X0472441
X0474705
X0476968
Y0324213
X0474705
X0472441
X0470177
X0484154
X0486417
X0488681
X0490945
X0493209
Y0321555
X0490945
X0488681
X0486417
X0484154
T03
X0498465Y0271752
Y0281752
X0508465
Y0271752
Y0291752
X0498465
X0371555Y0288189
Y0278189
Y0268189
Y0298189
Y0308189
Y0226575
Y0216575
Y0206575
Y0196575
Y0186575
Y0176575
Y0318189
M30
