G04*
G04 #@! TF.GenerationSoftware,Altium Limited,Altium Designer,21.6.1 (37)*
G04*
G04 Layer_Physical_Order=1*
G04 Layer_Color=255*
%FSLAX25Y25*%
%MOIN*%
G70*
G04*
G04 #@! TF.SameCoordinates,953C7FF0-8441-463C-8B19-84221F089CF9*
G04*
G04*
G04 #@! TF.FilePolarity,Positive*
G04*
G01*
G75*
%ADD11C,0.00787*%
%ADD13R,0.01575X0.01968*%
%ADD15R,0.01968X0.01575*%
%ADD16R,0.23622X0.23622*%
%ADD17R,0.00876X0.03188*%
G04:AMPARAMS|DCode=18|XSize=31.88mil|YSize=8.76mil|CornerRadius=4.38mil|HoleSize=0mil|Usage=FLASHONLY|Rotation=90.000|XOffset=0mil|YOffset=0mil|HoleType=Round|Shape=RoundedRectangle|*
%AMROUNDEDRECTD18*
21,1,0.03188,0.00000,0,0,90.0*
21,1,0.02312,0.00876,0,0,90.0*
1,1,0.00876,0.00000,0.01156*
1,1,0.00876,0.00000,-0.01156*
1,1,0.00876,0.00000,-0.01156*
1,1,0.00876,0.00000,0.01156*
%
%ADD18ROUNDEDRECTD18*%
G04:AMPARAMS|DCode=19|XSize=8.76mil|YSize=31.88mil|CornerRadius=4.38mil|HoleSize=0mil|Usage=FLASHONLY|Rotation=90.000|XOffset=0mil|YOffset=0mil|HoleType=Round|Shape=RoundedRectangle|*
%AMROUNDEDRECTD19*
21,1,0.00876,0.02312,0,0,90.0*
21,1,0.00000,0.03188,0,0,90.0*
1,1,0.00876,0.01156,0.00000*
1,1,0.00876,0.01156,0.00000*
1,1,0.00876,-0.01156,0.00000*
1,1,0.00876,-0.01156,0.00000*
%
%ADD19ROUNDEDRECTD19*%
%ADD20R,0.03150X0.07480*%
%ADD21R,0.06299X0.12992*%
%ADD22R,0.06299X0.04724*%
G04:AMPARAMS|DCode=23|XSize=15.75mil|YSize=19.68mil|CornerRadius=0mil|HoleSize=0mil|Usage=FLASHONLY|Rotation=315.000|XOffset=0mil|YOffset=0mil|HoleType=Round|Shape=Rectangle|*
%AMROTATEDRECTD23*
4,1,4,-0.01253,-0.00139,0.00139,0.01253,0.01253,0.00139,-0.00139,-0.01253,-0.01253,-0.00139,0.0*
%
%ADD23ROTATEDRECTD23*%

G04:AMPARAMS|DCode=25|XSize=19.68mil|YSize=9.84mil|CornerRadius=1.97mil|HoleSize=0mil|Usage=FLASHONLY|Rotation=0.000|XOffset=0mil|YOffset=0mil|HoleType=Round|Shape=RoundedRectangle|*
%AMROUNDEDRECTD25*
21,1,0.01968,0.00591,0,0,0.0*
21,1,0.01575,0.00984,0,0,0.0*
1,1,0.00394,0.00787,-0.00295*
1,1,0.00394,-0.00787,-0.00295*
1,1,0.00394,-0.00787,0.00295*
1,1,0.00394,0.00787,0.00295*
%
%ADD25ROUNDEDRECTD25*%
G04:AMPARAMS|DCode=26|XSize=35.43mil|YSize=62.99mil|CornerRadius=1.95mil|HoleSize=0mil|Usage=FLASHONLY|Rotation=0.000|XOffset=0mil|YOffset=0mil|HoleType=Round|Shape=RoundedRectangle|*
%AMROUNDEDRECTD26*
21,1,0.03543,0.05909,0,0,0.0*
21,1,0.03154,0.06299,0,0,0.0*
1,1,0.00390,0.01577,-0.02955*
1,1,0.00390,-0.01577,-0.02955*
1,1,0.00390,-0.01577,0.02955*
1,1,0.00390,0.01577,0.02955*
%
%ADD26ROUNDEDRECTD26*%
%ADD27R,0.06530X0.02468*%
G04:AMPARAMS|DCode=28|XSize=65.3mil|YSize=24.68mil|CornerRadius=12.34mil|HoleSize=0mil|Usage=FLASHONLY|Rotation=180.000|XOffset=0mil|YOffset=0mil|HoleType=Round|Shape=RoundedRectangle|*
%AMROUNDEDRECTD28*
21,1,0.06530,0.00000,0,0,180.0*
21,1,0.04063,0.02468,0,0,180.0*
1,1,0.02468,-0.02031,0.00000*
1,1,0.02468,0.02031,0.00000*
1,1,0.02468,0.02031,0.00000*
1,1,0.02468,-0.02031,0.00000*
%
%ADD28ROUNDEDRECTD28*%
G04:AMPARAMS|DCode=29|XSize=97.4mil|YSize=24.49mil|CornerRadius=12.25mil|HoleSize=0mil|Usage=FLASHONLY|Rotation=180.000|XOffset=0mil|YOffset=0mil|HoleType=Round|Shape=RoundedRectangle|*
%AMROUNDEDRECTD29*
21,1,0.09740,0.00000,0,0,180.0*
21,1,0.07291,0.02449,0,0,180.0*
1,1,0.02449,-0.03646,0.00000*
1,1,0.02449,0.03646,0.00000*
1,1,0.02449,0.03646,0.00000*
1,1,0.02449,-0.03646,0.00000*
%
%ADD29ROUNDEDRECTD29*%
%ADD30R,0.09740X0.02449*%
%ADD34R,0.02362X0.01968*%
%ADD35R,0.07244X0.06102*%
%ADD36R,0.00955X0.03188*%
G04:AMPARAMS|DCode=37|XSize=31.88mil|YSize=9.55mil|CornerRadius=4.77mil|HoleSize=0mil|Usage=FLASHONLY|Rotation=90.000|XOffset=0mil|YOffset=0mil|HoleType=Round|Shape=RoundedRectangle|*
%AMROUNDEDRECTD37*
21,1,0.03188,0.00000,0,0,90.0*
21,1,0.02233,0.00955,0,0,90.0*
1,1,0.00955,0.00000,0.01116*
1,1,0.00955,0.00000,-0.01116*
1,1,0.00955,0.00000,-0.01116*
1,1,0.00955,0.00000,0.01116*
%
%ADD37ROUNDEDRECTD37*%
%ADD38R,0.02468X0.06530*%
G04:AMPARAMS|DCode=39|XSize=65.3mil|YSize=24.68mil|CornerRadius=12.34mil|HoleSize=0mil|Usage=FLASHONLY|Rotation=90.000|XOffset=0mil|YOffset=0mil|HoleType=Round|Shape=RoundedRectangle|*
%AMROUNDEDRECTD39*
21,1,0.06530,0.00000,0,0,90.0*
21,1,0.04063,0.02468,0,0,90.0*
1,1,0.02468,0.00000,0.02031*
1,1,0.02468,0.00000,-0.02031*
1,1,0.02468,0.00000,-0.02031*
1,1,0.02468,0.00000,0.02031*
%
%ADD39ROUNDEDRECTD39*%
%ADD40R,0.02095X0.04745*%
G04:AMPARAMS|DCode=41|XSize=47.45mil|YSize=20.95mil|CornerRadius=10.48mil|HoleSize=0mil|Usage=FLASHONLY|Rotation=270.000|XOffset=0mil|YOffset=0mil|HoleType=Round|Shape=RoundedRectangle|*
%AMROUNDEDRECTD41*
21,1,0.04745,0.00000,0,0,270.0*
21,1,0.02650,0.02095,0,0,270.0*
1,1,0.02095,0.00000,-0.01325*
1,1,0.02095,0.00000,0.01325*
1,1,0.02095,0.00000,0.01325*
1,1,0.02095,0.00000,-0.01325*
%
%ADD41ROUNDEDRECTD41*%
%ADD42R,0.06102X0.07244*%
%ADD43R,0.03188X0.00955*%
G04:AMPARAMS|DCode=44|XSize=31.88mil|YSize=9.55mil|CornerRadius=4.77mil|HoleSize=0mil|Usage=FLASHONLY|Rotation=180.000|XOffset=0mil|YOffset=0mil|HoleType=Round|Shape=RoundedRectangle|*
%AMROUNDEDRECTD44*
21,1,0.03188,0.00000,0,0,180.0*
21,1,0.02233,0.00955,0,0,180.0*
1,1,0.00955,-0.01116,0.00000*
1,1,0.00955,0.01116,0.00000*
1,1,0.00955,0.01116,0.00000*
1,1,0.00955,-0.01116,0.00000*
%
%ADD44ROUNDEDRECTD44*%
%ADD46R,0.05118X0.04134*%
%ADD51R,0.01772X0.01772*%
%ADD52R,0.01772X0.01772*%
%ADD53R,0.03347X0.01181*%
G04:AMPARAMS|DCode=54|XSize=137.8mil|YSize=137.8mil|CornerRadius=6.89mil|HoleSize=0mil|Usage=FLASHONLY|Rotation=90.000|XOffset=0mil|YOffset=0mil|HoleType=Round|Shape=RoundedRectangle|*
%AMROUNDEDRECTD54*
21,1,0.13780,0.12402,0,0,90.0*
21,1,0.12402,0.13780,0,0,90.0*
1,1,0.01378,0.06201,0.06201*
1,1,0.01378,0.06201,-0.06201*
1,1,0.01378,-0.06201,-0.06201*
1,1,0.01378,-0.06201,0.06201*
%
%ADD54ROUNDEDRECTD54*%
%ADD55R,0.01181X0.03347*%
%ADD56O,0.06693X0.01181*%
%ADD57C,0.01000*%
%ADD58C,0.00512*%
%ADD59R,0.05118X0.02165*%
%ADD60R,0.02559X0.04528*%
%ADD61R,0.06988X0.11811*%
%ADD62R,0.05906X0.05118*%
%ADD63R,0.05217X0.03642*%
%ADD64R,0.04724X0.03248*%
%ADD65R,0.03839X0.02854*%
%ADD66R,0.19488X0.06988*%
%ADD67R,0.05512X0.07972*%
%ADD68C,0.06299*%
%ADD69R,0.06299X0.06299*%
%ADD70C,0.06496*%
%ADD71R,0.06496X0.06496*%
%ADD72C,0.01968*%
G36*
X515551Y170374D02*
X366142D01*
Y326181D01*
X441992D01*
Y324425D01*
X441937D01*
Y322441D01*
X441437D01*
Y321941D01*
X439650D01*
Y320457D01*
X440499D01*
X440549Y319957D01*
X440244Y319896D01*
X439567Y319444D01*
X439423Y319228D01*
X438923D01*
X438779Y319444D01*
X438102Y319896D01*
X437303Y320055D01*
X436504Y319896D01*
X435827Y319444D01*
X435374Y318766D01*
X435256Y318172D01*
X434654D01*
X434069Y318055D01*
X433573Y317724D01*
X431497Y315648D01*
X431166Y315152D01*
X431049Y314567D01*
Y301572D01*
X430897Y301419D01*
X430594Y300690D01*
Y299901D01*
X430897Y299171D01*
X431455Y298613D01*
X432184Y298311D01*
X432973D01*
X433703Y298613D01*
X434261Y299171D01*
X434563Y299901D01*
Y300690D01*
X434261Y301419D01*
X434108Y301572D01*
Y313933D01*
X434850Y314675D01*
X435329Y314573D01*
X435385Y314503D01*
X435827Y313841D01*
X436504Y313389D01*
X437303Y313230D01*
X438102Y313389D01*
X438779Y313841D01*
X438923Y314057D01*
X439423D01*
X439567Y313841D01*
X440244Y313389D01*
X440543Y313329D01*
Y316642D01*
X441543D01*
Y313300D01*
X441992Y312933D01*
Y312500D01*
X442070Y312110D01*
X442291Y311779D01*
X442622Y311558D01*
X442954Y311492D01*
X443071Y311304D01*
X443179Y310980D01*
X442855Y310495D01*
X442696Y309696D01*
Y309252D01*
X442562Y309052D01*
X442484Y308661D01*
Y304642D01*
X441543D01*
Y302658D01*
Y300673D01*
X442484D01*
Y296850D01*
X442562Y296460D01*
X442783Y296129D01*
X443114Y295908D01*
X443504Y295831D01*
X450492D01*
X450882Y295908D01*
X451213Y296129D01*
X451434Y296460D01*
X451512Y296850D01*
Y308661D01*
X451927Y309138D01*
X453657D01*
Y310425D01*
X451673D01*
Y311425D01*
X453657D01*
Y311480D01*
X456034D01*
Y309161D01*
X458268D01*
X460502D01*
Y311947D01*
X460998Y312216D01*
X461870Y312043D01*
X462742Y312216D01*
X463233Y312164D01*
X463313Y312082D01*
X463379Y311987D01*
X463368Y311564D01*
X463195Y310693D01*
Y306630D01*
X463368Y305759D01*
X463862Y305020D01*
X463943Y304965D01*
Y303704D01*
X463109Y302870D01*
X460835D01*
Y300886D01*
Y298902D01*
X463955D01*
Y298244D01*
X462957D01*
Y294925D01*
X460941D01*
Y295291D01*
X456972D01*
Y291717D01*
Y290854D01*
X458957D01*
X460941D01*
Y292083D01*
X462957D01*
Y288764D01*
X474251D01*
Y284782D01*
X461201Y271732D01*
X460923Y271317D01*
X460826Y270827D01*
Y254346D01*
X460638D01*
Y252461D01*
X459638D01*
Y254346D01*
X458283D01*
Y255921D01*
X456996D01*
Y253937D01*
X455996D01*
Y255921D01*
X451559D01*
Y253441D01*
X451395Y253044D01*
X451034Y252684D01*
X444248D01*
X443931Y253070D01*
X443942Y253123D01*
X443830Y253684D01*
X443547Y254107D01*
X443830Y254531D01*
X443942Y255092D01*
X443830Y255653D01*
X443547Y256076D01*
X443830Y256499D01*
X443942Y257060D01*
X443830Y257621D01*
X443547Y258044D01*
X443830Y258468D01*
X443942Y259029D01*
X443830Y259590D01*
X443547Y260013D01*
X443830Y260436D01*
X443942Y260997D01*
X443929Y261062D01*
X444246Y261449D01*
X450464D01*
X450961Y261547D01*
X451461Y261284D01*
Y259630D01*
X455898D01*
Y261614D01*
X456398D01*
Y262114D01*
X458185D01*
Y262382D01*
X458189D01*
Y263866D01*
X456402D01*
Y264366D01*
X455902D01*
Y266350D01*
X454739D01*
X454237Y266558D01*
X453448D01*
X452946Y266350D01*
X451465D01*
Y265411D01*
X451369D01*
X450783Y265295D01*
X450287Y264963D01*
X449831Y264507D01*
X444251D01*
X443934Y264894D01*
X443942Y264934D01*
X443830Y265495D01*
X443547Y265918D01*
X443830Y266341D01*
X443942Y266903D01*
X443830Y267464D01*
X443547Y267887D01*
X443830Y268310D01*
X443942Y268871D01*
X443830Y269432D01*
X443547Y269855D01*
X443830Y270279D01*
X443904Y270648D01*
X444405Y270845D01*
X444414Y270845D01*
X444785Y270474D01*
X445281Y270142D01*
X445866Y270026D01*
X451461D01*
Y269571D01*
X455898D01*
Y271555D01*
X456398D01*
Y272055D01*
X458185D01*
Y272327D01*
Y273811D01*
X456398D01*
Y274311D01*
X455898D01*
Y276295D01*
X451461D01*
Y273084D01*
X450080D01*
X449889Y273547D01*
X449923Y273581D01*
X450225Y274310D01*
Y275099D01*
X449923Y275829D01*
X449365Y276387D01*
X449291Y276418D01*
X449158Y276986D01*
X449381Y277250D01*
X451461D01*
Y277150D01*
X455898D01*
Y279134D01*
Y281118D01*
X451461D01*
Y280092D01*
X449398D01*
X449206Y280554D01*
X449222Y280569D01*
X449524Y281298D01*
Y282088D01*
X449222Y282817D01*
X448663Y283375D01*
X447934Y283677D01*
X447145D01*
X446415Y283375D01*
X446154Y283114D01*
X445455D01*
X444911Y283006D01*
X444450Y282698D01*
X441932Y280180D01*
X440419D01*
Y282237D01*
X440374Y282463D01*
Y284880D01*
X441041Y285548D01*
X441272D01*
X441494Y285326D01*
X442223Y285024D01*
X443013D01*
X443742Y285326D01*
X444300Y285884D01*
X444602Y286613D01*
Y287403D01*
X444300Y288132D01*
X443742Y288690D01*
X443013Y288992D01*
X442223D01*
X441494Y288690D01*
X441194Y288390D01*
X440453D01*
X439909Y288282D01*
X439448Y287974D01*
X437948Y286474D01*
X437640Y286013D01*
X437532Y285469D01*
Y283988D01*
X437145Y283671D01*
X436984Y283703D01*
X436423Y283591D01*
X436000Y283308D01*
X435577Y283591D01*
X435016Y283703D01*
X434455Y283591D01*
X434031Y283308D01*
X433608Y283591D01*
X433047Y283703D01*
X432995Y283692D01*
X432608Y284009D01*
Y285117D01*
X432773Y285281D01*
X433075Y286011D01*
Y286800D01*
X432773Y287529D01*
X432214Y288088D01*
X431485Y288390D01*
X430696D01*
X429967Y288088D01*
X429408Y287529D01*
X429171Y286957D01*
X428671Y287056D01*
Y288764D01*
X430331D01*
Y291913D01*
Y293201D01*
X428346D01*
Y293701D01*
X427846D01*
Y295488D01*
X426091D01*
Y293701D01*
X425591D01*
Y293201D01*
X423606D01*
Y291913D01*
Y288764D01*
X425612D01*
Y284009D01*
X425226Y283692D01*
X425173Y283703D01*
X424612Y283591D01*
X424189Y283308D01*
X423766Y283591D01*
X423205Y283703D01*
X422644Y283591D01*
X422221Y283308D01*
X421797Y283591D01*
X421236Y283703D01*
X421184Y283692D01*
X420797Y284009D01*
Y288764D01*
X422555D01*
Y291913D01*
Y293201D01*
X420571D01*
Y293701D01*
X420071D01*
Y295488D01*
X419799D01*
Y295488D01*
X418315D01*
Y293701D01*
X417315D01*
Y295583D01*
X417147Y295988D01*
X423210Y302051D01*
X424819D01*
Y305201D01*
Y308972D01*
X423013D01*
X420882Y311104D01*
Y315075D01*
X418852D01*
Y315158D01*
X418736Y315743D01*
X418404Y316239D01*
X416059Y318584D01*
Y320390D01*
X411622D01*
Y318406D01*
Y316421D01*
X413896D01*
X414781Y315537D01*
X414589Y315075D01*
X413764D01*
Y308941D01*
X418654D01*
X418877Y308662D01*
X418667Y308185D01*
X417823D01*
Y305118D01*
Y302051D01*
X418231D01*
X418422Y301589D01*
X414419Y297586D01*
X411856Y300149D01*
Y303551D01*
X411827Y303699D01*
Y308185D01*
X404709D01*
Y307328D01*
X404214Y307105D01*
X403953Y307308D01*
Y309441D01*
X401968D01*
X399984D01*
Y308154D01*
Y305004D01*
X401790D01*
X402757Y304037D01*
X403253Y303705D01*
X403839Y303589D01*
X404709D01*
Y302051D01*
X408797D01*
Y299516D01*
X408914Y298931D01*
X409245Y298434D01*
X411790Y295890D01*
X411583Y295390D01*
X411228D01*
Y293602D01*
X410228D01*
Y295390D01*
X408472D01*
Y293602D01*
X407472D01*
Y295390D01*
X405693D01*
Y293602D01*
X404693D01*
Y295390D01*
X402961D01*
Y293602D01*
X402461D01*
Y293102D01*
X400476D01*
Y291815D01*
Y288665D01*
X402957D01*
X403432Y288469D01*
X403959D01*
Y284009D01*
X403572Y283692D01*
X403520Y283703D01*
X402959Y283591D01*
X402535Y283308D01*
X402112Y283591D01*
X401551Y283703D01*
X401499Y283692D01*
X401112Y284009D01*
Y284576D01*
X400996Y285161D01*
X400664Y285657D01*
X398550Y287772D01*
X398757Y288272D01*
X399031D01*
Y291815D01*
Y295783D01*
X394669D01*
Y295783D01*
X394307Y295488D01*
X390535D01*
Y291717D01*
Y290953D01*
X392421D01*
Y290453D01*
X392921D01*
Y288567D01*
X394292D01*
X394669Y288272D01*
X394669Y288272D01*
X394669Y288272D01*
X395321D01*
Y287308D01*
X395364Y287090D01*
X395147Y286897D01*
X394920Y286759D01*
X394392Y286864D01*
X393224D01*
Y287221D01*
X388689D01*
Y285335D01*
X388189D01*
Y284835D01*
X386303D01*
Y283972D01*
X386121D01*
X385883Y283874D01*
X381898D01*
Y281988D01*
X381398D01*
Y281488D01*
X379512D01*
Y280102D01*
Y276953D01*
X382957D01*
Y273803D01*
X383264D01*
Y272358D01*
X382095D01*
Y270374D01*
X381594D01*
Y269874D01*
X379807D01*
Y268390D01*
Y268118D01*
X381594D01*
Y267618D01*
X382095D01*
Y265634D01*
X386531D01*
Y267404D01*
X392331D01*
X392648Y267017D01*
X392625Y266903D01*
X392737Y266341D01*
X393020Y265918D01*
X392737Y265495D01*
X392625Y264934D01*
X392636Y264881D01*
X392318Y264495D01*
X386981D01*
X386396Y264378D01*
X385900Y264047D01*
X378151Y256298D01*
X377819Y255802D01*
X377703Y255217D01*
Y231004D01*
X377819Y230419D01*
X378151Y229923D01*
X385548Y222525D01*
X385357Y222063D01*
X382465D01*
Y222063D01*
X379906D01*
Y218488D01*
Y217626D01*
X381890D01*
Y216626D01*
X379906D01*
Y216256D01*
X379807D01*
Y214772D01*
X381594D01*
Y213772D01*
X379807D01*
Y213303D01*
X379709D01*
Y211694D01*
X377749Y209735D01*
X377418Y209239D01*
X377301Y208653D01*
Y184260D01*
X377418Y183675D01*
X377749Y183178D01*
X382600Y178328D01*
X383096Y177997D01*
X383681Y177880D01*
X384141D01*
X384191Y177806D01*
X384927Y177314D01*
X385679Y177164D01*
Y176655D01*
X384927Y176505D01*
X384191Y176013D01*
X383699Y175277D01*
X383527Y174409D01*
X383699Y173541D01*
X384191Y172806D01*
X384927Y172314D01*
X385795Y172141D01*
X393086D01*
X393954Y172314D01*
X394690Y172806D01*
X395182Y173541D01*
X395354Y174409D01*
X395182Y175277D01*
X394690Y176013D01*
X393954Y176505D01*
X393202Y176655D01*
Y177164D01*
X393954Y177314D01*
X394690Y177806D01*
X395182Y178541D01*
X395354Y179409D01*
X395182Y180278D01*
X394690Y181013D01*
X393954Y181505D01*
X393202Y181655D01*
Y182164D01*
X393954Y182314D01*
X394690Y182806D01*
X395182Y183541D01*
X395354Y184409D01*
X395182Y185277D01*
X394690Y186013D01*
X393954Y186505D01*
X393202Y186654D01*
Y187164D01*
X393954Y187314D01*
X394690Y187806D01*
X395182Y188541D01*
X395255Y188909D01*
X389440D01*
X383626D01*
X383699Y188541D01*
X384191Y187806D01*
X384927Y187314D01*
X385679Y187164D01*
Y186654D01*
X384927Y186505D01*
X384561Y186260D01*
X384556Y186262D01*
X383998Y186820D01*
X383269Y187122D01*
X382479D01*
X381750Y186820D01*
X381192Y186262D01*
X380925Y185617D01*
X380597Y185439D01*
X380390Y185373D01*
X380360Y185393D01*
Y192664D01*
X380860Y192998D01*
X381101Y192898D01*
X381891D01*
X381972Y192931D01*
X382231Y192880D01*
X384141D01*
X384191Y192806D01*
X384927Y192314D01*
X385679Y192164D01*
Y191655D01*
X384927Y191505D01*
X384191Y191013D01*
X383699Y190278D01*
X383626Y189909D01*
X389440D01*
X395255D01*
X395182Y190278D01*
X394690Y191013D01*
X393954Y191505D01*
X393202Y191655D01*
Y192164D01*
X393954Y192314D01*
X394690Y192806D01*
X395182Y193541D01*
X395354Y194409D01*
X395182Y195278D01*
X394690Y196013D01*
X393954Y196505D01*
X393202Y196654D01*
Y197164D01*
X393954Y197314D01*
X394690Y197806D01*
X395182Y198541D01*
X395354Y199409D01*
X395182Y200277D01*
X394690Y201013D01*
X393954Y201505D01*
X393202Y201655D01*
Y202164D01*
X393954Y202314D01*
X394690Y202806D01*
X395182Y203541D01*
X395354Y204409D01*
X395182Y205277D01*
X394975Y205587D01*
X395242Y206087D01*
X395882D01*
Y207571D01*
X394094D01*
Y208071D01*
X393595D01*
Y210055D01*
X392474D01*
Y210977D01*
X395276D01*
X395896Y211100D01*
X396422Y211452D01*
X396774Y211978D01*
X396897Y212598D01*
X396774Y213219D01*
X396531Y213583D01*
X396774Y213946D01*
X396897Y214567D01*
X396774Y215188D01*
X396531Y215551D01*
X396774Y215915D01*
X396798Y216035D01*
X395941D01*
X395896Y216065D01*
X395276Y216189D01*
X392520D01*
Y216882D01*
X395276D01*
X395896Y217005D01*
X395941Y217035D01*
X396798D01*
X396774Y217156D01*
X396531Y217520D01*
X396774Y217883D01*
X396897Y218504D01*
X396792Y219032D01*
X396855Y219200D01*
X397038Y219282D01*
X397490Y219272D01*
X401308Y215454D01*
X401804Y215123D01*
X402389Y215006D01*
X403977D01*
X404294Y214619D01*
X404284Y214567D01*
X404407Y213946D01*
X404650Y213583D01*
X404407Y213219D01*
X404284Y212598D01*
X404407Y211978D01*
X404759Y211452D01*
X405285Y211100D01*
X405905Y210977D01*
X411417D01*
X411707Y211034D01*
X411901D01*
X412878Y210058D01*
Y207462D01*
X412094Y206678D01*
X404819D01*
X403951Y206505D01*
X403215Y206013D01*
X402723Y205277D01*
X402551Y204409D01*
X402723Y203541D01*
X403215Y202806D01*
X403951Y202314D01*
X404703Y202164D01*
Y201655D01*
X403951Y201505D01*
X403215Y201013D01*
X402723Y200277D01*
X402551Y199409D01*
X402723Y198541D01*
X403215Y197806D01*
X403951Y197314D01*
X404703Y197164D01*
Y196654D01*
X403951Y196505D01*
X403215Y196013D01*
X403097Y195837D01*
X403067D01*
X402482Y195721D01*
X401986Y195389D01*
X400609Y194012D01*
X400393D01*
X399663Y193710D01*
X399105Y193151D01*
X398803Y192422D01*
Y191633D01*
X399105Y190904D01*
X399663Y190345D01*
X400393Y190043D01*
X401182D01*
X401911Y190345D01*
X402470Y190904D01*
X402772Y191633D01*
Y191849D01*
X403523Y192600D01*
X403951Y192314D01*
X404703Y192164D01*
Y191655D01*
X403951Y191505D01*
X403215Y191013D01*
X402723Y190278D01*
X402551Y189409D01*
X402723Y188541D01*
X403215Y187806D01*
X403951Y187314D01*
X404703Y187164D01*
Y186654D01*
X403951Y186505D01*
X403215Y186013D01*
X403101Y185842D01*
X402094D01*
X401509Y185726D01*
X401013Y185394D01*
X400772Y185153D01*
X400294D01*
X399565Y184851D01*
X399007Y184293D01*
X398705Y183564D01*
Y182775D01*
X399007Y182045D01*
X399565Y181487D01*
X400294Y181185D01*
X401084D01*
X401813Y181487D01*
X402371Y182045D01*
X402641Y182696D01*
X402728Y182783D01*
X403249D01*
X403951Y182314D01*
X404703Y182164D01*
Y181655D01*
X403951Y181505D01*
X403215Y181013D01*
X402723Y180278D01*
X402551Y179409D01*
X402723Y178541D01*
X403215Y177806D01*
X403951Y177314D01*
X404819Y177141D01*
X406935D01*
Y176634D01*
X402594D01*
Y172185D01*
X414335D01*
Y172524D01*
X417929D01*
Y172622D01*
X418791D01*
Y174409D01*
X419291D01*
Y174909D01*
X421276D01*
Y175772D01*
Y179347D01*
X420821D01*
Y182044D01*
X423129Y184352D01*
X423460Y184848D01*
X423577Y185433D01*
Y211024D01*
X423460Y211609D01*
X423129Y212105D01*
X419585Y215648D01*
X419089Y215980D01*
X418504Y216096D01*
X413346D01*
X413029Y216483D01*
X413039Y216535D01*
X412916Y217156D01*
X412673Y217520D01*
X412916Y217883D01*
X413039Y218504D01*
X412916Y219125D01*
X412673Y219488D01*
X412916Y219852D01*
X413039Y220472D01*
X412916Y221093D01*
X412564Y221619D01*
X412038Y221971D01*
X411417Y222094D01*
X405905D01*
X405441Y222002D01*
X404177D01*
X401066Y225113D01*
X401257Y225575D01*
X405331D01*
Y228331D01*
Y231908D01*
X405475Y232346D01*
X405771Y232442D01*
X406049Y232498D01*
X406472Y232780D01*
X406896Y232498D01*
X407081Y232152D01*
X406972Y231891D01*
Y231101D01*
X407274Y230372D01*
X407833Y229814D01*
X408346Y229601D01*
X408565Y229477D01*
X408602Y229012D01*
X408449Y228643D01*
Y227853D01*
X408751Y227124D01*
X409309Y226566D01*
X409530Y226474D01*
X409708Y225960D01*
X409433Y225296D01*
Y224507D01*
X409735Y223778D01*
X410293Y223219D01*
X411023Y222917D01*
X411812D01*
X412541Y223219D01*
X413099Y223778D01*
X413402Y224507D01*
Y224658D01*
X413681Y224881D01*
X414157Y224671D01*
Y222350D01*
X416142D01*
Y221850D01*
X416642D01*
Y220063D01*
X418398D01*
Y221850D01*
X419398D01*
Y220063D01*
X420882D01*
Y220091D01*
X421744D01*
Y221878D01*
X422744D01*
Y220091D01*
X423016D01*
Y220063D01*
X424500D01*
Y221850D01*
X425500D01*
Y220063D01*
X425969D01*
Y220063D01*
X427453D01*
Y221850D01*
X428453D01*
Y220063D01*
X430209D01*
Y221850D01*
X430709D01*
Y222350D01*
X432693D01*
Y223471D01*
X437303D01*
X437888Y223587D01*
X438385Y223919D01*
X438663Y224197D01*
X440272D01*
Y224553D01*
X444587D01*
X445172Y224670D01*
X445668Y225001D01*
X447226Y226559D01*
X448835D01*
Y227801D01*
X454020D01*
Y226681D01*
X456004D01*
X457988D01*
Y227801D01*
X458941D01*
Y226681D01*
X460925D01*
Y225681D01*
X458941D01*
Y224394D01*
X459236D01*
Y223630D01*
X461024D01*
Y223130D01*
X461524D01*
Y221146D01*
X465512D01*
X465966Y221076D01*
X465998Y220661D01*
Y220450D01*
X463006Y217458D01*
X462873Y217591D01*
X460067Y214785D01*
X460200Y214651D01*
X459512Y213964D01*
X459329Y214146D01*
X456523Y211340D01*
X458750Y209113D01*
X459661Y208202D01*
X461064Y209606D01*
X462467Y211009D01*
X461675Y211801D01*
X462363Y212489D01*
X463204Y211647D01*
X464607Y213050D01*
X466010Y214454D01*
X465169Y215295D01*
X465959Y216085D01*
X466010Y216034D01*
X466739Y215732D01*
X467528D01*
X468258Y216034D01*
X468816Y216593D01*
X469118Y217322D01*
Y218111D01*
X468816Y218841D01*
X468734Y218922D01*
X468940Y219231D01*
X469008Y219571D01*
X469866D01*
Y218905D01*
X471457D01*
Y217905D01*
X469866D01*
Y215732D01*
X470883D01*
X471199Y215347D01*
Y213383D01*
X470652Y212837D01*
X470350Y212107D01*
Y211318D01*
X470652Y210589D01*
X471211Y210030D01*
X471940Y209728D01*
X472729D01*
X473459Y210030D01*
X473713Y210284D01*
X473967Y210030D01*
X474696Y209728D01*
X475485D01*
X475833Y209496D01*
Y205240D01*
X475852Y205142D01*
X475590Y204642D01*
X475489Y204600D01*
X474860Y204340D01*
X474302Y203782D01*
X474000Y203052D01*
Y202836D01*
X470277Y199113D01*
X470277Y199113D01*
X470277Y199113D01*
X469945Y198617D01*
X469829Y198031D01*
Y197358D01*
X465559D01*
Y195374D01*
Y193390D01*
X469472D01*
Y190339D01*
X469876D01*
Y188537D01*
X465945D01*
X465360Y188421D01*
X464863Y188089D01*
X464585Y187811D01*
X462583D01*
Y187713D01*
X459531D01*
Y185249D01*
X459268Y184858D01*
X457783D01*
Y183071D01*
X457283D01*
Y182571D01*
X455299D01*
Y181283D01*
Y178134D01*
X455910D01*
X456382Y178067D01*
Y174295D01*
X463303D01*
Y174652D01*
X469150D01*
X471655Y172147D01*
X472151Y171815D01*
X472736Y171699D01*
X473409D01*
Y171244D01*
X480134D01*
Y171699D01*
X480807D01*
X481392Y171815D01*
X481888Y172147D01*
X484393Y174652D01*
X490634D01*
Y174295D01*
X497555D01*
Y174394D01*
X501197D01*
Y177073D01*
X501606Y177445D01*
X502396D01*
X503125Y177747D01*
X503683Y178305D01*
X503985Y179034D01*
Y179824D01*
X503683Y180553D01*
X503125Y181111D01*
X502396Y181413D01*
X501606D01*
X500893Y181118D01*
X499105D01*
X498917Y181155D01*
X497653D01*
Y182275D01*
X495768D01*
Y182775D01*
X495268D01*
Y184661D01*
X494406D01*
Y187713D01*
X490634D01*
Y187614D01*
X489549D01*
X487589Y189574D01*
X487093Y189905D01*
X486508Y190022D01*
X484591D01*
X484251Y189954D01*
X483972Y190408D01*
Y193390D01*
X487886D01*
Y195374D01*
X488386D01*
Y195874D01*
X490173D01*
Y196305D01*
X492658D01*
X492776Y196161D01*
Y195571D01*
X492869Y195104D01*
X493133Y194708D01*
X493529Y194444D01*
X493996Y194351D01*
X494283D01*
Y195866D01*
X495284D01*
Y194351D01*
X495571D01*
X496038Y194444D01*
X496434Y194708D01*
X496462Y194751D01*
X496481Y194739D01*
X496947Y194646D01*
X498024D01*
Y198819D01*
X499024D01*
Y194646D01*
X500100D01*
X500567Y194739D01*
X500585Y194751D01*
X500613Y194708D01*
X501009Y194444D01*
X501476Y194351D01*
X502194D01*
X502264Y194337D01*
X504331D01*
X504916Y194453D01*
X505412Y194785D01*
X509385Y198757D01*
X509716Y199253D01*
X509832Y199839D01*
Y219983D01*
X509716Y220569D01*
X509385Y221065D01*
X505886Y224564D01*
X505389Y224895D01*
X505035Y224966D01*
Y225606D01*
X497327D01*
X497327Y225606D01*
X497063Y225705D01*
Y225705D01*
X496868Y225705D01*
X490665D01*
Y230626D01*
X487992D01*
Y231382D01*
X490665D01*
Y231534D01*
X492924D01*
X492971Y231487D01*
X493700Y231185D01*
X494489D01*
X495154Y231460D01*
X495432Y231354D01*
X495653Y231215D01*
Y230716D01*
X497638D01*
X499622D01*
Y231579D01*
Y235154D01*
X495653D01*
Y235085D01*
X495554Y235032D01*
X495154Y234878D01*
X494489Y235154D01*
X493700D01*
X492971Y234852D01*
X492711Y234592D01*
X491026D01*
X490695Y235032D01*
Y236108D01*
X493558Y238971D01*
X493758Y238770D01*
X496565Y241576D01*
X496364Y241777D01*
X497052Y242465D01*
X497234Y242283D01*
X500040Y245089D01*
X497513Y247616D01*
X496903Y248226D01*
X495500Y246823D01*
X494097Y245420D01*
X494889Y244628D01*
X494201Y243940D01*
X493427Y244714D01*
X492024Y243311D01*
X490621Y241908D01*
X491395Y241134D01*
X488084Y237823D01*
X487752Y237327D01*
X487636Y236741D01*
Y236531D01*
X486827D01*
Y237197D01*
X485236D01*
Y237697D01*
X484858D01*
Y240370D01*
X484689D01*
Y248302D01*
X484581Y248846D01*
X484272Y249307D01*
X484071Y249509D01*
Y250198D01*
X483769Y250927D01*
X483538Y251157D01*
X483745Y251658D01*
X483761D01*
X484490Y251960D01*
X485048Y252518D01*
X485350Y253247D01*
Y253279D01*
X485630Y253508D01*
X487583D01*
Y251878D01*
X489468D01*
Y251378D01*
X489968D01*
Y249492D01*
X491126D01*
Y249492D01*
X492512D01*
Y251378D01*
X493012D01*
Y251878D01*
X494898D01*
Y253508D01*
X497736D01*
X498126Y253586D01*
X498457Y253807D01*
X498678Y254137D01*
X498756Y254528D01*
Y257776D01*
X498678Y258166D01*
X498457Y258496D01*
X498126Y258718D01*
X497736Y258795D01*
X494898D01*
Y262516D01*
X491873D01*
X491635Y262614D01*
X490845D01*
X490608Y262516D01*
X487583D01*
Y258401D01*
X485808D01*
X485788Y258425D01*
Y298563D01*
X485691Y299053D01*
X485413Y299468D01*
X484370Y300512D01*
X483955Y300789D01*
X483465Y300887D01*
X471654D01*
X471164Y300789D01*
X470748Y300512D01*
X469626Y299390D01*
X469348Y298974D01*
X469251Y298484D01*
Y298244D01*
X467014D01*
Y302533D01*
X467370Y302676D01*
X467514Y302707D01*
X467818Y302503D01*
X468209Y302425D01*
X482087D01*
X482477Y302503D01*
X482808Y302724D01*
X483029Y303055D01*
X483106Y303445D01*
Y306756D01*
X494374D01*
Y303945D01*
X498524D01*
X502673D01*
Y306759D01*
X503048Y306834D01*
X503378Y307055D01*
X503600Y307385D01*
X503677Y307776D01*
Y309138D01*
X503600Y309528D01*
X503378Y309859D01*
X503144Y310016D01*
X503222Y310504D01*
X503227Y310516D01*
X506783D01*
Y312500D01*
Y314484D01*
X503227D01*
X503222Y314496D01*
X503144Y314984D01*
X503378Y315141D01*
X503600Y315472D01*
X503677Y315862D01*
Y317815D01*
X503600Y318205D01*
X503378Y318536D01*
X503048Y318757D01*
X502673Y318831D01*
Y319571D01*
X506783D01*
Y321555D01*
Y323539D01*
X502673D01*
Y324917D01*
X502594D01*
Y326181D01*
X515551D01*
Y170374D01*
D02*
G37*
G36*
X481067Y319193D02*
X481145Y318803D01*
X481366Y318472D01*
X481696Y318251D01*
X482087Y318173D01*
Y317815D01*
X502658D01*
Y315862D01*
X499024D01*
Y312500D01*
Y309138D01*
X502658D01*
Y307776D01*
X482087D01*
Y303445D01*
X468209D01*
Y312500D01*
X466788D01*
X466344Y312797D01*
X465472Y312970D01*
X464601Y312797D01*
X464390Y312656D01*
X464087Y312720D01*
X463851Y313265D01*
X463974Y313449D01*
X464148Y314321D01*
Y315852D01*
X461870D01*
X459592D01*
Y314321D01*
X459766Y313449D01*
X459820Y313368D01*
X459585Y312927D01*
X456034D01*
Y312500D01*
X453657D01*
Y313575D01*
X451673D01*
X449689D01*
Y312500D01*
X443012D01*
Y313270D01*
X444283D01*
Y316642D01*
X444783D01*
Y317143D01*
X446831D01*
Y320015D01*
X446515D01*
X446374Y320457D01*
X446374D01*
Y321941D01*
X444587D01*
Y322441D01*
X444087D01*
Y324425D01*
X443012D01*
Y326181D01*
X481067D01*
Y319193D01*
D02*
G37*
G36*
X436423Y278570D02*
X436984Y278459D01*
X437545Y278570D01*
X437968Y278853D01*
X438392Y278570D01*
X438740Y278501D01*
X438809Y278152D01*
X439092Y277729D01*
X438809Y277306D01*
X438698Y276745D01*
X438809Y276184D01*
X439092Y275761D01*
X438809Y275338D01*
X438698Y274777D01*
X438809Y274216D01*
X439092Y273792D01*
X438809Y273369D01*
X438698Y272808D01*
X438809Y272247D01*
X439092Y271824D01*
X438809Y271401D01*
X438698Y270840D01*
X438809Y270279D01*
X439092Y269855D01*
X438809Y269432D01*
X438698Y268871D01*
X438809Y268310D01*
X439092Y267887D01*
X438809Y267464D01*
X438698Y266903D01*
X438809Y266341D01*
X439092Y265918D01*
X438809Y265495D01*
X438698Y264934D01*
X438809Y264373D01*
X439092Y263950D01*
X438809Y263527D01*
X438698Y262965D01*
X438809Y262404D01*
X439092Y261981D01*
X438809Y261558D01*
X438698Y260997D01*
X438809Y260436D01*
X439092Y260013D01*
X438809Y259590D01*
X438698Y259029D01*
X438809Y258468D01*
X439092Y258044D01*
X438809Y257621D01*
X438698Y257060D01*
X438809Y256499D01*
X439092Y256076D01*
X438809Y255653D01*
X438698Y255092D01*
X438809Y254531D01*
X439092Y254107D01*
X438809Y253684D01*
X438698Y253123D01*
X438809Y252562D01*
X439092Y252139D01*
X438809Y251716D01*
X438698Y251154D01*
X438809Y250593D01*
X439092Y250170D01*
X438809Y249747D01*
X438698Y249186D01*
X438809Y248625D01*
X439092Y248202D01*
X438809Y247779D01*
X438698Y247217D01*
X438809Y246656D01*
X439092Y246233D01*
X438809Y245810D01*
X438698Y245249D01*
X438809Y244688D01*
X439092Y244265D01*
X438809Y243842D01*
X438698Y243281D01*
X438809Y242719D01*
X439092Y242296D01*
X438809Y241873D01*
X438698Y241312D01*
X438809Y240751D01*
X439092Y240328D01*
X438809Y239905D01*
X438698Y239344D01*
X438809Y238782D01*
X439092Y238359D01*
X438809Y237936D01*
X438740Y237587D01*
X438392Y237518D01*
X437968Y237235D01*
X437545Y237518D01*
X436984Y237630D01*
X436423Y237518D01*
X436000Y237235D01*
X435577Y237518D01*
X435016Y237630D01*
X434455Y237518D01*
X434031Y237235D01*
X433608Y237518D01*
X433047Y237630D01*
X432486Y237518D01*
X432063Y237235D01*
X431640Y237518D01*
X431079Y237630D01*
X430518Y237518D01*
X430094Y237235D01*
X429671Y237518D01*
X429110Y237630D01*
X428549Y237518D01*
X428126Y237235D01*
X427703Y237518D01*
X427142Y237630D01*
X426581Y237518D01*
X426158Y237235D01*
X425734Y237518D01*
X425173Y237630D01*
X424612Y237518D01*
X424189Y237235D01*
X423766Y237518D01*
X423205Y237630D01*
X422644Y237518D01*
X422221Y237235D01*
X421797Y237518D01*
X421236Y237630D01*
X420675Y237518D01*
X420252Y237235D01*
X419829Y237518D01*
X419268Y237630D01*
X418707Y237518D01*
X418283Y237235D01*
X417860Y237518D01*
X417299Y237630D01*
X416738Y237518D01*
X416315Y237235D01*
X415892Y237518D01*
X415331Y237630D01*
X414770Y237518D01*
X414346Y237235D01*
X413923Y237518D01*
X413362Y237630D01*
X412801Y237518D01*
X412720Y237464D01*
X412463Y237532D01*
X412285Y237752D01*
X412163Y238108D01*
X412319Y238483D01*
Y239273D01*
X412017Y240002D01*
X411459Y240560D01*
X410729Y240862D01*
X409940D01*
X409319Y240605D01*
X409201Y240563D01*
X408677Y240734D01*
X408538Y240941D01*
X408413Y241066D01*
Y241544D01*
X408111Y242274D01*
X407553Y242832D01*
X406824Y243134D01*
X406034D01*
X405305Y242832D01*
X404747Y242274D01*
X404234Y242194D01*
X403953Y242439D01*
Y242521D01*
X403651Y243250D01*
X403092Y243808D01*
X402363Y244110D01*
X401574D01*
X400844Y243808D01*
X400286Y243250D01*
X399984Y242521D01*
Y241731D01*
X400286Y241002D01*
X400844Y240444D01*
X401574Y240142D01*
X401790D01*
X403724Y238207D01*
X403703Y238087D01*
X403520Y237630D01*
X402959Y237518D01*
X402535Y237235D01*
X402112Y237518D01*
X401551Y237630D01*
X400990Y237518D01*
X400567Y237235D01*
X400144Y237518D01*
X399583Y237630D01*
X399128Y237539D01*
X399052Y237602D01*
Y237602D01*
X397824D01*
X397757Y237936D01*
X397475Y238359D01*
X397757Y238782D01*
X397869Y239344D01*
X397757Y239905D01*
X397475Y240328D01*
X397757Y240751D01*
X397869Y241312D01*
X397757Y241873D01*
X397475Y242296D01*
X397757Y242719D01*
X397869Y243281D01*
X397757Y243842D01*
X397475Y244265D01*
X397757Y244688D01*
X397869Y245249D01*
X397757Y245810D01*
X397475Y246233D01*
X397757Y246656D01*
X397869Y247217D01*
X397757Y247779D01*
X397475Y248202D01*
X397757Y248625D01*
X397869Y249186D01*
X397757Y249747D01*
X397475Y250170D01*
X397757Y250593D01*
X397869Y251154D01*
X397757Y251716D01*
X397475Y252139D01*
X397757Y252562D01*
X397869Y253123D01*
X397757Y253684D01*
X397475Y254107D01*
X397757Y254531D01*
X397869Y255092D01*
X397757Y255653D01*
X397475Y256076D01*
X397757Y256499D01*
X397869Y257060D01*
X397757Y257621D01*
X397475Y258044D01*
X397757Y258468D01*
X397869Y259029D01*
X397757Y259590D01*
X397475Y260013D01*
X397757Y260436D01*
X397769Y260497D01*
X395247D01*
Y261436D01*
X395554Y261497D01*
X397769D01*
X397757Y261558D01*
X397475Y261981D01*
X397757Y262404D01*
X397869Y262965D01*
X397757Y263527D01*
X397475Y263950D01*
X397757Y264373D01*
X397869Y264934D01*
X397757Y265495D01*
X397475Y265918D01*
X397757Y266341D01*
X397869Y266903D01*
X397757Y267464D01*
X397475Y267887D01*
X397757Y268310D01*
X397869Y268871D01*
X397757Y269432D01*
X397475Y269855D01*
X397757Y270279D01*
X397869Y270840D01*
X397757Y271401D01*
X397475Y271824D01*
X397757Y272247D01*
X397869Y272808D01*
X397757Y273369D01*
X397475Y273792D01*
X397757Y274216D01*
X397869Y274777D01*
X397757Y275338D01*
X397475Y275761D01*
X397757Y276184D01*
X397869Y276745D01*
X397757Y277306D01*
X397475Y277729D01*
X397757Y278152D01*
X397827Y278501D01*
X398175Y278570D01*
X398598Y278853D01*
X399022Y278570D01*
X399583Y278459D01*
X400144Y278570D01*
X400567Y278853D01*
X400990Y278570D01*
X401551Y278459D01*
X402112Y278570D01*
X402535Y278853D01*
X402959Y278570D01*
X403520Y278459D01*
X404081Y278570D01*
X404504Y278853D01*
X404927Y278570D01*
X405488Y278459D01*
X406049Y278570D01*
X406472Y278853D01*
X406896Y278570D01*
X407457Y278459D01*
X408018Y278570D01*
X408441Y278853D01*
X408864Y278570D01*
X409425Y278459D01*
X409986Y278570D01*
X410409Y278853D01*
X410833Y278570D01*
X411394Y278459D01*
X411955Y278570D01*
X412378Y278853D01*
X412801Y278570D01*
X413362Y278459D01*
X413923Y278570D01*
X414346Y278853D01*
X414770Y278570D01*
X415331Y278459D01*
X415892Y278570D01*
X416315Y278853D01*
X416738Y278570D01*
X417299Y278459D01*
X417860Y278570D01*
X418283Y278853D01*
X418707Y278570D01*
X419268Y278459D01*
X419829Y278570D01*
X420252Y278853D01*
X420675Y278570D01*
X421236Y278459D01*
X421797Y278570D01*
X422221Y278853D01*
X422644Y278570D01*
X423205Y278459D01*
X423766Y278570D01*
X424189Y278853D01*
X424612Y278570D01*
X425173Y278459D01*
X425734Y278570D01*
X426158Y278853D01*
X426581Y278570D01*
X427142Y278459D01*
X427703Y278570D01*
X428126Y278853D01*
X428549Y278570D01*
X429110Y278459D01*
X429671Y278570D01*
X430094Y278853D01*
X430518Y278570D01*
X431079Y278459D01*
X431640Y278570D01*
X432063Y278853D01*
X432486Y278570D01*
X433047Y278459D01*
X433608Y278570D01*
X434031Y278853D01*
X434455Y278570D01*
X435016Y278459D01*
X435577Y278570D01*
X436000Y278853D01*
X436423Y278570D01*
D02*
G37*
G36*
X477932Y277881D02*
X472284Y272233D01*
X472006Y271817D01*
X471909Y271327D01*
Y267142D01*
X468781D01*
X468681Y267642D01*
X468841Y267708D01*
X469399Y268266D01*
X469701Y268995D01*
Y269784D01*
X469399Y270514D01*
X468841Y271072D01*
X468111Y271374D01*
X467322D01*
X466593Y271072D01*
X466034Y270514D01*
X465732Y269784D01*
Y269216D01*
X464626Y268110D01*
X464349Y267695D01*
X464251Y267205D01*
Y267142D01*
X463387D01*
Y270296D01*
X476437Y283347D01*
X476715Y283762D01*
X476812Y284252D01*
Y288764D01*
X477932D01*
Y277881D01*
D02*
G37*
G36*
X483106Y288764D02*
X483227Y288314D01*
Y267592D01*
X483106Y267142D01*
X481032D01*
Y262402D01*
X480031D01*
Y267142D01*
X474470D01*
Y270797D01*
X480118Y276445D01*
X480396Y276861D01*
X480493Y277351D01*
Y288764D01*
X483106D01*
D02*
G37*
G36*
X469251Y253444D02*
X464305Y248498D01*
X463245D01*
X463079Y248998D01*
X463289Y249313D01*
X463387Y249803D01*
Y257661D01*
X469251D01*
Y253444D01*
D02*
G37*
G36*
X392687Y246904D02*
X392737Y246656D01*
X393020Y246233D01*
X392737Y245810D01*
X392625Y245249D01*
X392737Y244688D01*
X393020Y244265D01*
X392737Y243842D01*
X392625Y243281D01*
X392737Y242719D01*
X393020Y242296D01*
X392737Y241873D01*
X392625Y241312D01*
X392737Y240751D01*
X393020Y240328D01*
X392737Y239905D01*
X392625Y239344D01*
X392737Y238782D01*
X393020Y238359D01*
X392737Y237936D01*
X392625Y237375D01*
X392737Y236814D01*
X393055Y236338D01*
X393530Y236020D01*
X393718Y235983D01*
Y230555D01*
X393256Y230364D01*
X383785Y239834D01*
Y241717D01*
X384343D01*
Y243701D01*
X385343D01*
Y241717D01*
X389779D01*
Y244209D01*
X389976Y244684D01*
Y244900D01*
X392145Y247069D01*
X392687Y246904D01*
D02*
G37*
G36*
X394206Y222556D02*
X394015Y222094D01*
X390305D01*
X380762Y231637D01*
Y235347D01*
X381224Y235539D01*
X394206Y222556D01*
D02*
G37*
G36*
X490142Y218685D02*
X493648D01*
Y218602D01*
X493764Y218017D01*
X494096Y217521D01*
X494664Y216953D01*
X494457Y216453D01*
X494192D01*
X493463Y216151D01*
X492904Y215593D01*
X492602Y214863D01*
Y214074D01*
X492796Y213606D01*
X492489Y213106D01*
X489650D01*
Y212750D01*
X487811D01*
Y216256D01*
X486827D01*
Y219571D01*
X490142D01*
Y218685D01*
D02*
G37*
G36*
X506774Y219350D02*
Y211495D01*
X506312Y211304D01*
X505829Y211786D01*
X505333Y212118D01*
X504748Y212234D01*
X504248D01*
Y212909D01*
X500742D01*
Y214567D01*
X500626Y215152D01*
X500294Y215648D01*
X499806Y216137D01*
X499997Y216599D01*
X503839D01*
X504229Y216676D01*
X504560Y216897D01*
X504781Y217228D01*
X504858Y217618D01*
Y218685D01*
X505035D01*
Y220435D01*
X505497Y220626D01*
X506774Y219350D01*
D02*
G37*
G36*
X383055Y206185D02*
X383412D01*
Y205656D01*
X383528Y205070D01*
X383628Y204920D01*
X383527Y204409D01*
X383699Y203541D01*
X384191Y202806D01*
X384927Y202314D01*
X385679Y202164D01*
Y201655D01*
X384927Y201505D01*
X384191Y201013D01*
X383699Y200277D01*
X383527Y199409D01*
X383699Y198541D01*
X384191Y197806D01*
X384927Y197314D01*
X385679Y197164D01*
Y196654D01*
X384927Y196505D01*
X384191Y196013D01*
X384141Y195939D01*
X383206D01*
X383178Y196006D01*
X382620Y196564D01*
X381891Y196866D01*
X381101D01*
X380860Y196766D01*
X380360Y197100D01*
Y208020D01*
X381872Y209531D01*
X383055D01*
Y206185D01*
D02*
G37*
G36*
X420518Y209934D02*
Y194307D01*
X419496D01*
Y192520D01*
X418496D01*
Y194307D01*
X416740D01*
Y192520D01*
X415740D01*
Y194307D01*
X414462D01*
X414378Y194410D01*
X414206Y195278D01*
X413714Y196013D01*
X412978Y196505D01*
X412226Y196654D01*
Y197164D01*
X412978Y197314D01*
X413714Y197806D01*
X414206Y198541D01*
X414378Y199409D01*
X414206Y200277D01*
X413714Y201013D01*
X412978Y201505D01*
X412226Y201655D01*
Y202164D01*
X412978Y202314D01*
X413714Y202806D01*
X414206Y203541D01*
X414378Y204409D01*
X414341Y204599D01*
X415041Y205299D01*
X416650D01*
Y205496D01*
X417512D01*
Y207283D01*
X418012D01*
Y207784D01*
X419996D01*
Y209681D01*
X420496Y209948D01*
X420518Y209934D01*
D02*
G37*
G36*
X414256Y187583D02*
X416748D01*
X417223Y187386D01*
X418013D01*
X418488Y187583D01*
X420518D01*
Y186067D01*
X418210Y183759D01*
X417878Y183262D01*
X417762Y182677D01*
Y179445D01*
X414371D01*
X414206Y180278D01*
X413714Y181013D01*
X412978Y181505D01*
X412226Y181655D01*
Y182164D01*
X412978Y182314D01*
X413714Y182806D01*
X414206Y183541D01*
X414378Y184409D01*
X414206Y185277D01*
X413714Y186013D01*
X412978Y186505D01*
X412226Y186654D01*
Y187164D01*
X412978Y187314D01*
X413714Y187806D01*
X413751Y187860D01*
X414256D01*
Y187583D01*
D02*
G37*
G36*
X477272Y179433D02*
X480823D01*
Y179625D01*
X481830D01*
X482092Y179573D01*
X484120D01*
X484399Y179386D01*
X484984Y179270D01*
X486866D01*
X486984Y179293D01*
X487484Y178883D01*
Y177937D01*
X487078Y177710D01*
X483760D01*
X483175Y177594D01*
X482678Y177262D01*
X480632Y175216D01*
X480134Y175213D01*
Y175213D01*
X473409D01*
Y175213D01*
X472911Y175216D01*
X470865Y177262D01*
X470369Y177594D01*
X469783Y177710D01*
X466859D01*
X466453Y177937D01*
Y179573D01*
X471452D01*
X471568Y179596D01*
X472568D01*
X472720Y179471D01*
Y179433D01*
X476272D01*
Y184055D01*
X477272D01*
Y179433D01*
D02*
G37*
%LPC*%
G36*
X440937Y324425D02*
X439650D01*
Y322941D01*
X440937D01*
Y324425D01*
D02*
G37*
G36*
X509071Y323539D02*
X507784D01*
Y322055D01*
X509071D01*
Y323539D01*
D02*
G37*
G36*
Y321055D02*
X507784D01*
Y319571D01*
X509071D01*
Y321055D01*
D02*
G37*
G36*
X410622Y320390D02*
X409335D01*
Y318905D01*
X410622D01*
Y320390D01*
D02*
G37*
G36*
Y317905D02*
X409335D01*
Y316421D01*
X410622D01*
Y317905D01*
D02*
G37*
G36*
X372101Y322339D02*
X371009D01*
X369953Y322056D01*
X369007Y321510D01*
X368235Y320737D01*
X367688Y319791D01*
X367406Y318735D01*
Y317643D01*
X367688Y316587D01*
X368235Y315641D01*
X369007Y314868D01*
X369953Y314322D01*
X371009Y314039D01*
X372101D01*
X373157Y314322D01*
X374103Y314868D01*
X374876Y315641D01*
X375422Y316587D01*
X375705Y317643D01*
Y318735D01*
X375422Y319791D01*
X374876Y320737D01*
X374103Y321510D01*
X373157Y322056D01*
X372101Y322339D01*
D02*
G37*
G36*
X509071Y314484D02*
X507784D01*
Y313000D01*
X509071D01*
Y314484D01*
D02*
G37*
G36*
X411827Y315075D02*
X408768D01*
Y312508D01*
X411827D01*
Y315075D01*
D02*
G37*
G36*
X407768D02*
X404709D01*
Y312508D01*
X407768D01*
Y315075D01*
D02*
G37*
G36*
X509071Y312000D02*
X507784D01*
Y310516D01*
X509071D01*
Y312000D01*
D02*
G37*
G36*
X403953Y311728D02*
X402468D01*
Y310441D01*
X403953D01*
Y311728D01*
D02*
G37*
G36*
X401469D02*
X399984D01*
Y310441D01*
X401469D01*
Y311728D01*
D02*
G37*
G36*
X411827Y311508D02*
X408768D01*
Y308941D01*
X411827D01*
Y311508D01*
D02*
G37*
G36*
X407768D02*
X404709D01*
Y308941D01*
X407768D01*
Y311508D01*
D02*
G37*
G36*
X416823Y308185D02*
X413764D01*
Y305618D01*
X416823D01*
Y308185D01*
D02*
G37*
G36*
X437303Y311784D02*
X436504Y311625D01*
X435827Y311172D01*
X435374Y310495D01*
X435216Y309696D01*
Y307046D01*
X435374Y306247D01*
X435827Y305570D01*
X436504Y305117D01*
X437303Y304958D01*
X438102Y305117D01*
X438779Y305570D01*
X439232Y306247D01*
X439391Y307046D01*
Y309696D01*
X439232Y310495D01*
X438779Y311172D01*
X438102Y311625D01*
X437303Y311784D01*
D02*
G37*
G36*
X460502Y308161D02*
X458768D01*
Y304396D01*
X460502D01*
Y308161D01*
D02*
G37*
G36*
X457768D02*
X456034D01*
Y304396D01*
X457768D01*
Y308161D01*
D02*
G37*
G36*
X372101Y312339D02*
X371009D01*
X369953Y312056D01*
X369007Y311509D01*
X368235Y310737D01*
X367688Y309791D01*
X367406Y308735D01*
Y307643D01*
X367688Y306587D01*
X368235Y305641D01*
X369007Y304869D01*
X369953Y304322D01*
X371009Y304039D01*
X372101D01*
X373157Y304322D01*
X374103Y304869D01*
X374876Y305641D01*
X375422Y306587D01*
X375705Y307643D01*
Y308735D01*
X375422Y309791D01*
X374876Y310737D01*
X374103Y311509D01*
X373157Y312056D01*
X372101Y312339D01*
D02*
G37*
G36*
X440543Y304642D02*
X439256D01*
Y303157D01*
X440543D01*
Y304642D01*
D02*
G37*
G36*
X416823Y304618D02*
X413764D01*
Y302051D01*
X416823D01*
Y304618D01*
D02*
G37*
G36*
X459835Y302870D02*
X458547D01*
Y301386D01*
X459835D01*
Y302870D01*
D02*
G37*
G36*
X440543Y302157D02*
X439256D01*
Y300673D01*
X440543D01*
Y302157D01*
D02*
G37*
G36*
X502673Y302945D02*
X499024D01*
Y300083D01*
X502673D01*
Y302945D01*
D02*
G37*
G36*
X498024D02*
X494374D01*
Y300083D01*
X498024D01*
Y302945D01*
D02*
G37*
G36*
X459835Y300386D02*
X458547D01*
Y298902D01*
X459835D01*
Y300386D01*
D02*
G37*
G36*
X422555Y295488D02*
X421071D01*
Y294201D01*
X422555D01*
Y295488D01*
D02*
G37*
G36*
X425091Y295488D02*
X423606D01*
Y294201D01*
X425091D01*
Y295488D01*
D02*
G37*
G36*
X430331D02*
X428846D01*
Y294201D01*
X430331D01*
Y295488D01*
D02*
G37*
G36*
X401961Y295390D02*
X400476D01*
Y294102D01*
X401961D01*
Y295390D01*
D02*
G37*
G36*
X372101Y302339D02*
X371009D01*
X369953Y302056D01*
X369007Y301509D01*
X368235Y300737D01*
X367688Y299791D01*
X367406Y298735D01*
Y297643D01*
X367688Y296587D01*
X368235Y295641D01*
X369007Y294868D01*
X369953Y294322D01*
X371009Y294039D01*
X372101D01*
X373157Y294322D01*
X374103Y294868D01*
X374876Y295641D01*
X375422Y296587D01*
X375705Y297643D01*
Y298735D01*
X375422Y299791D01*
X374876Y300737D01*
X374103Y301509D01*
X373157Y302056D01*
X372101Y302339D01*
D02*
G37*
G36*
X499024Y296000D02*
X498965D01*
Y292252D01*
X502713D01*
Y292311D01*
X502423Y293392D01*
X501864Y294360D01*
X501073Y295151D01*
X500104Y295710D01*
X499024Y296000D01*
D02*
G37*
G36*
X497964D02*
X497905D01*
X496825Y295710D01*
X495856Y295151D01*
X495065Y294360D01*
X494506Y293392D01*
X494216Y292311D01*
Y292252D01*
X497964D01*
Y296000D01*
D02*
G37*
G36*
X391921Y289953D02*
X390535D01*
Y288567D01*
X391921D01*
Y289953D01*
D02*
G37*
G36*
X460941Y289854D02*
X459457D01*
Y288567D01*
X460941D01*
Y289854D01*
D02*
G37*
G36*
X458457D02*
X456972D01*
Y288567D01*
X458457D01*
Y289854D01*
D02*
G37*
G36*
X509024Y296000D02*
X507905D01*
X506825Y295710D01*
X505856Y295151D01*
X505065Y294360D01*
X504506Y293392D01*
X504216Y292311D01*
Y291193D01*
X504506Y290112D01*
X505065Y289144D01*
X505856Y288353D01*
X506825Y287793D01*
X507905Y287504D01*
X509024D01*
X510104Y287793D01*
X511073Y288353D01*
X511864Y289144D01*
X512423Y290112D01*
X512713Y291193D01*
Y292311D01*
X512423Y293392D01*
X511864Y294360D01*
X511073Y295151D01*
X510104Y295710D01*
X509024Y296000D01*
D02*
G37*
G36*
X502713Y291252D02*
X498965D01*
Y287504D01*
X499024D01*
X500104Y287793D01*
X501073Y288353D01*
X501864Y289144D01*
X502423Y290112D01*
X502713Y291193D01*
Y291252D01*
D02*
G37*
G36*
X497964D02*
X494216D01*
Y291193D01*
X494506Y290112D01*
X495065Y289144D01*
X495856Y288353D01*
X496825Y287793D01*
X497905Y287504D01*
X497964D01*
Y291252D01*
D02*
G37*
G36*
X387689Y287221D02*
X386303D01*
Y285835D01*
X387689D01*
Y287221D01*
D02*
G37*
G36*
X372101Y292339D02*
X371009D01*
X369953Y292056D01*
X369007Y291510D01*
X368235Y290737D01*
X367688Y289791D01*
X367406Y288735D01*
Y287643D01*
X367688Y286587D01*
X368235Y285641D01*
X369007Y284869D01*
X369953Y284322D01*
X371009Y284039D01*
X372101D01*
X373157Y284322D01*
X374103Y284869D01*
X374876Y285641D01*
X375422Y286587D01*
X375705Y287643D01*
Y288735D01*
X375422Y289791D01*
X374876Y290737D01*
X374103Y291510D01*
X373157Y292056D01*
X372101Y292339D01*
D02*
G37*
G36*
X380898Y283874D02*
X379512D01*
Y282488D01*
X380898D01*
Y283874D01*
D02*
G37*
G36*
X458185Y281118D02*
X456898D01*
Y279634D01*
X458185D01*
Y281118D01*
D02*
G37*
G36*
X509024Y286000D02*
X507905D01*
X506825Y285711D01*
X505856Y285151D01*
X505065Y284360D01*
X504506Y283392D01*
X504216Y282311D01*
Y281193D01*
X504506Y280112D01*
X505065Y279144D01*
X505856Y278353D01*
X506825Y277793D01*
X507905Y277504D01*
X509024D01*
X510104Y277793D01*
X511073Y278353D01*
X511864Y279144D01*
X512423Y280112D01*
X512713Y281193D01*
Y282311D01*
X512423Y283392D01*
X511864Y284360D01*
X511073Y285151D01*
X510104Y285711D01*
X509024Y286000D01*
D02*
G37*
G36*
X499024D02*
X497905D01*
X496825Y285711D01*
X495856Y285151D01*
X495065Y284360D01*
X494506Y283392D01*
X494216Y282311D01*
Y281193D01*
X494506Y280112D01*
X495065Y279144D01*
X495856Y278353D01*
X496825Y277793D01*
X497905Y277504D01*
X499024D01*
X500104Y277793D01*
X501073Y278353D01*
X501864Y279144D01*
X502423Y280112D01*
X502713Y281193D01*
Y282311D01*
X502423Y283392D01*
X501864Y284360D01*
X501073Y285151D01*
X500104Y285711D01*
X499024Y286000D01*
D02*
G37*
G36*
X458185Y278634D02*
X456898D01*
Y277150D01*
X458185D01*
Y278634D01*
D02*
G37*
G36*
X458185Y276295D02*
X456898D01*
Y274811D01*
X458185D01*
Y276295D01*
D02*
G37*
G36*
X372101Y282339D02*
X371009D01*
X369953Y282056D01*
X369007Y281509D01*
X368235Y280737D01*
X367688Y279791D01*
X367406Y278735D01*
Y277643D01*
X367688Y276587D01*
X368235Y275641D01*
X369007Y274868D01*
X369953Y274322D01*
X371009Y274039D01*
X372101D01*
X373157Y274322D01*
X374103Y274868D01*
X374876Y275641D01*
X375422Y276587D01*
X375705Y277643D01*
Y278735D01*
X375422Y279791D01*
X374876Y280737D01*
X374103Y281509D01*
X373157Y282056D01*
X372101Y282339D01*
D02*
G37*
G36*
X381095Y272358D02*
X379807D01*
Y270874D01*
X381095D01*
Y272358D01*
D02*
G37*
G36*
X458185Y271055D02*
X456898D01*
Y269571D01*
X458185D01*
Y271055D01*
D02*
G37*
G36*
X512713Y276000D02*
X504216D01*
Y267504D01*
X512713D01*
Y276000D01*
D02*
G37*
G36*
X499024D02*
X497905D01*
X496825Y275711D01*
X495856Y275151D01*
X495065Y274360D01*
X494506Y273392D01*
X494216Y272311D01*
Y271193D01*
X494506Y270112D01*
X495065Y269144D01*
X495856Y268353D01*
X496825Y267793D01*
X497905Y267504D01*
X499024D01*
X500104Y267793D01*
X501073Y268353D01*
X501864Y269144D01*
X502423Y270112D01*
X502713Y271193D01*
Y272311D01*
X502423Y273392D01*
X501864Y274360D01*
X501073Y275151D01*
X500104Y275711D01*
X499024Y276000D01*
D02*
G37*
G36*
X381095Y267118D02*
X379807D01*
Y265634D01*
X381095D01*
Y267118D01*
D02*
G37*
G36*
X458189Y266350D02*
X456902D01*
Y264866D01*
X458189D01*
Y266350D01*
D02*
G37*
G36*
X375705Y272339D02*
X367406D01*
Y264039D01*
X375705D01*
Y272339D01*
D02*
G37*
G36*
X458185Y261114D02*
X456898D01*
Y259630D01*
X458185D01*
Y261114D01*
D02*
G37*
G36*
X488969Y250878D02*
X487583D01*
Y249492D01*
X488969D01*
Y250878D01*
D02*
G37*
G36*
X494898Y250878D02*
X493512D01*
Y249492D01*
X494227D01*
X494434Y248992D01*
X494236Y248794D01*
X495146Y247884D01*
X496196Y248933D01*
X495286Y249844D01*
X495286Y249844D01*
Y249844D01*
X494898Y250163D01*
Y250878D01*
D02*
G37*
G36*
X493529Y248087D02*
X492479Y247037D01*
X493390Y246127D01*
X494439Y247177D01*
X493529Y248087D01*
D02*
G37*
G36*
X491810Y246331D02*
X490760Y245282D01*
X491671Y244371D01*
X492720Y245421D01*
X491810Y246331D01*
D02*
G37*
G36*
X490053Y244574D02*
X489004Y243525D01*
X489914Y242615D01*
X490963Y243664D01*
X490053Y244574D01*
D02*
G37*
G36*
X486827Y240370D02*
X485736D01*
Y238197D01*
X486827D01*
Y240370D01*
D02*
G37*
G36*
X499622Y229716D02*
X498138D01*
Y228429D01*
X499622D01*
Y229716D01*
D02*
G37*
G36*
X497138D02*
X495653D01*
Y228429D01*
X497138D01*
Y229716D01*
D02*
G37*
G36*
X457988Y225681D02*
X456504D01*
Y224394D01*
X457988D01*
Y225681D01*
D02*
G37*
G36*
X455504D02*
X454020D01*
Y224394D01*
X455504D01*
Y225681D01*
D02*
G37*
G36*
X372101Y230724D02*
X371009D01*
X369953Y230442D01*
X369007Y229895D01*
X368235Y229123D01*
X367688Y228176D01*
X367406Y227121D01*
Y226028D01*
X367688Y224973D01*
X368235Y224027D01*
X369007Y223254D01*
X369953Y222708D01*
X371009Y222425D01*
X372101D01*
X373157Y222708D01*
X374103Y223254D01*
X374876Y224027D01*
X375422Y224973D01*
X375705Y226028D01*
Y227121D01*
X375422Y228176D01*
X374876Y229123D01*
X374103Y229895D01*
X373157Y230442D01*
X372101Y230724D01*
D02*
G37*
G36*
X460524Y222630D02*
X459236D01*
Y221146D01*
X460524D01*
Y222630D01*
D02*
G37*
G36*
X415642Y221350D02*
X414157D01*
Y220063D01*
X415642D01*
Y221350D01*
D02*
G37*
G36*
X432693Y221350D02*
X431209D01*
Y220063D01*
X432693D01*
Y221350D01*
D02*
G37*
G36*
X372101Y220724D02*
X372055D01*
Y217075D01*
X375705D01*
Y217121D01*
X375422Y218177D01*
X374876Y219123D01*
X374103Y219895D01*
X373157Y220442D01*
X372101Y220724D01*
D02*
G37*
G36*
X371055D02*
X371009D01*
X369953Y220442D01*
X369007Y219895D01*
X368235Y219123D01*
X367688Y218177D01*
X367406Y217121D01*
Y217075D01*
X371055D01*
Y220724D01*
D02*
G37*
G36*
X438008Y218323D02*
X436720D01*
Y216839D01*
X438008D01*
Y218323D01*
D02*
G37*
G36*
Y215839D02*
X436720D01*
Y214354D01*
X438008D01*
Y215839D01*
D02*
G37*
G36*
X375705Y216075D02*
X372055D01*
Y212425D01*
X372101D01*
X373157Y212708D01*
X374103Y213254D01*
X374876Y214027D01*
X375422Y214973D01*
X375705Y216028D01*
Y216075D01*
D02*
G37*
G36*
X371055D02*
X367406D01*
Y216028D01*
X367688Y214973D01*
X368235Y214027D01*
X369007Y213254D01*
X369953Y212708D01*
X371009Y212425D01*
X371055D01*
Y216075D01*
D02*
G37*
G36*
X466717Y213746D02*
X465668Y212697D01*
X466578Y211787D01*
X467628Y212836D01*
X466717Y213746D01*
D02*
G37*
G36*
X464961Y211990D02*
X463911Y210940D01*
X464821Y210030D01*
X465871Y211079D01*
X464961Y211990D01*
D02*
G37*
G36*
X395882Y210055D02*
X394595D01*
Y208571D01*
X395882D01*
Y210055D01*
D02*
G37*
G36*
X463174Y210301D02*
X462124Y209252D01*
X463035Y208342D01*
X464084Y209391D01*
X463174Y210301D01*
D02*
G37*
G36*
X450508Y209366D02*
X449024D01*
Y208079D01*
X450508D01*
Y209366D01*
D02*
G37*
G36*
X448024D02*
X446539D01*
Y208079D01*
X448024D01*
Y209366D01*
D02*
G37*
G36*
X461417Y208545D02*
X460368Y207495D01*
X461278Y206585D01*
X462328Y207634D01*
X461417Y208545D01*
D02*
G37*
G36*
X372101Y210724D02*
X371009D01*
X369953Y210442D01*
X369007Y209895D01*
X368235Y209123D01*
X367688Y208176D01*
X367406Y207121D01*
Y206029D01*
X367688Y204973D01*
X368235Y204027D01*
X369007Y203254D01*
X369953Y202708D01*
X371009Y202425D01*
X372101D01*
X373157Y202708D01*
X374103Y203254D01*
X374876Y204027D01*
X375422Y204973D01*
X375705Y206029D01*
Y207121D01*
X375422Y208176D01*
X374876Y209123D01*
X374103Y209895D01*
X373157Y210442D01*
X372101Y210724D01*
D02*
G37*
G36*
X464559Y197358D02*
X463272D01*
Y195874D01*
X464559D01*
Y197358D01*
D02*
G37*
G36*
X490173Y194874D02*
X488886D01*
Y193390D01*
X490173D01*
Y194874D01*
D02*
G37*
G36*
X464559Y194874D02*
X463272D01*
Y193390D01*
X464559D01*
Y194874D01*
D02*
G37*
G36*
X435720Y218323D02*
X431283D01*
Y216728D01*
X431216Y216256D01*
X427445D01*
Y212484D01*
Y209335D01*
X427801D01*
Y203488D01*
X425296Y200983D01*
X424965Y200487D01*
X424849Y199902D01*
Y199228D01*
X424394D01*
Y195654D01*
Y192504D01*
X424849D01*
Y191831D01*
X424965Y191245D01*
X425296Y190749D01*
X427801Y188244D01*
Y182004D01*
X427445D01*
Y178232D01*
Y175083D01*
X427543D01*
Y171441D01*
X434268D01*
X434268Y171441D01*
X434768Y171675D01*
X435334Y171441D01*
X436123D01*
X436852Y171743D01*
X437410Y172301D01*
X437713Y173030D01*
Y173820D01*
X437437Y174484D01*
X437629Y174984D01*
X437811D01*
Y176370D01*
X435925D01*
Y177370D01*
X437811D01*
Y178232D01*
X440862D01*
Y181808D01*
X440862Y182004D01*
X440862D01*
X440764Y182268D01*
X440764Y182268D01*
Y183456D01*
X441062Y183655D01*
X442794Y185387D01*
X443125Y185883D01*
X443242Y186468D01*
Y188050D01*
X443195Y188287D01*
X443629Y188665D01*
X446539D01*
Y185614D01*
Y184752D01*
X448524D01*
X450508D01*
Y185614D01*
Y189189D01*
X450410D01*
Y189919D01*
X450508Y190156D01*
Y190946D01*
X450410Y191183D01*
Y192437D01*
X450882Y192504D01*
X453657D01*
Y195843D01*
X454119Y196034D01*
X454919Y195235D01*
X454906Y195202D01*
Y194412D01*
X455207Y193683D01*
X455766Y193125D01*
X456495Y192823D01*
X457284D01*
X458014Y193125D01*
X458572Y193683D01*
X458874Y194412D01*
Y195202D01*
X458572Y195931D01*
X458014Y196489D01*
X457888Y196542D01*
X457786Y196694D01*
X453919Y200561D01*
X453422Y200892D01*
X452837Y201009D01*
X450957D01*
X450410Y201556D01*
Y202642D01*
X450508D01*
Y205791D01*
Y207079D01*
X448524D01*
X446539D01*
Y205791D01*
Y203165D01*
X443488D01*
Y202809D01*
X441687D01*
Y206693D01*
X441570Y207278D01*
X441239Y207774D01*
X440862Y208151D01*
Y210055D01*
X440862D01*
Y213106D01*
X434632D01*
X434365Y213606D01*
X434484Y213785D01*
X434597Y214354D01*
X435720D01*
Y216339D01*
Y218323D01*
D02*
G37*
G36*
X372101Y200724D02*
X371009D01*
X369953Y200442D01*
X369007Y199895D01*
X368235Y199123D01*
X367688Y198177D01*
X367406Y197121D01*
Y196028D01*
X367688Y194973D01*
X368235Y194027D01*
X369007Y193254D01*
X369953Y192708D01*
X371009Y192425D01*
X372101D01*
X373157Y192708D01*
X374103Y193254D01*
X374876Y194027D01*
X375422Y194973D01*
X375705Y196028D01*
Y197121D01*
X375422Y198177D01*
X374876Y199123D01*
X374103Y199895D01*
X373157Y200442D01*
X372101Y200724D01*
D02*
G37*
G36*
X498008Y192650D02*
X496721D01*
Y191165D01*
X498008D01*
Y192650D01*
D02*
G37*
G36*
Y190165D02*
X496721D01*
Y188681D01*
X498008D01*
Y190165D01*
D02*
G37*
G36*
X509842Y193834D02*
X503937D01*
X503547Y193757D01*
X503216Y193536D01*
X502995Y193205D01*
X502917Y192815D01*
Y192650D01*
X499008D01*
Y190665D01*
Y188681D01*
X502917D01*
Y187697D01*
X502606Y187317D01*
X500423D01*
X499551Y187144D01*
X498812Y186650D01*
X498318Y185911D01*
X498244Y185539D01*
X502454D01*
X506663D01*
X506590Y185911D01*
X506492Y186058D01*
X506713Y186531D01*
X507136Y186608D01*
X507242Y186537D01*
X508113Y186364D01*
X512176D01*
X513047Y186537D01*
X513786Y187031D01*
X514280Y187770D01*
X514454Y188642D01*
X514280Y189513D01*
X513786Y190252D01*
X513047Y190746D01*
X512176Y190919D01*
X510862D01*
Y192815D01*
X510784Y193205D01*
X510564Y193536D01*
X510233Y193757D01*
X509842Y193834D01*
D02*
G37*
G36*
X456783Y184858D02*
X455299D01*
Y183571D01*
X456783D01*
Y184858D01*
D02*
G37*
G36*
X497653Y184661D02*
X496268D01*
Y183275D01*
X497653D01*
Y184661D01*
D02*
G37*
G36*
X501954Y184539D02*
X498244D01*
X498318Y184168D01*
X498812Y183429D01*
X499551Y182935D01*
X500423Y182762D01*
X501954D01*
Y184539D01*
D02*
G37*
G36*
X450508Y183752D02*
X449024D01*
Y182465D01*
X450508D01*
Y183752D01*
D02*
G37*
G36*
X448024D02*
X446539D01*
Y182465D01*
X448024D01*
Y183752D01*
D02*
G37*
G36*
X372101Y190724D02*
X371009D01*
X369953Y190442D01*
X369007Y189895D01*
X368235Y189123D01*
X367688Y188177D01*
X367406Y187121D01*
Y186029D01*
X367688Y184973D01*
X368235Y184027D01*
X369007Y183254D01*
X369953Y182708D01*
X371009Y182425D01*
X372101D01*
X373157Y182708D01*
X374103Y183254D01*
X374876Y184027D01*
X375422Y184973D01*
X375705Y186029D01*
Y187121D01*
X375422Y188177D01*
X374876Y189123D01*
X374103Y189895D01*
X373157Y190442D01*
X372101Y190724D01*
D02*
G37*
G36*
X504028Y176886D02*
X502740D01*
Y175402D01*
X504028D01*
Y176886D01*
D02*
G37*
G36*
Y174402D02*
X502740D01*
Y172917D01*
X504028D01*
Y174402D01*
D02*
G37*
G36*
X506663Y184539D02*
X502954D01*
Y182762D01*
X504485D01*
X505357Y182935D01*
X505438Y182990D01*
X505879Y182754D01*
Y179203D01*
X506854D01*
Y176886D01*
X505028D01*
Y174902D01*
Y172917D01*
X507775D01*
X507874Y172898D01*
X513386D01*
X513776Y172975D01*
X514107Y173196D01*
X514328Y173527D01*
X514405Y173917D01*
Y179203D01*
X514410D01*
Y183671D01*
X506788D01*
X506552Y184112D01*
X506590Y184168D01*
X506663Y184539D01*
D02*
G37*
G36*
X421276Y173909D02*
X419791D01*
Y172622D01*
X421276D01*
Y173909D01*
D02*
G37*
G36*
X375705Y180724D02*
X367406D01*
Y172425D01*
X375705D01*
Y180724D01*
D02*
G37*
%LPD*%
G36*
X432723Y201186D02*
X432746Y201070D01*
Y200070D01*
X432621Y199917D01*
X432583D01*
Y196366D01*
X437205D01*
Y195366D01*
X432583D01*
Y191815D01*
X432775D01*
Y190900D01*
X432700Y190524D01*
Y189256D01*
X432580Y189137D01*
X432248Y188640D01*
X432132Y188055D01*
Y186551D01*
X432248Y185966D01*
X432457Y185654D01*
X432222Y185154D01*
X431087D01*
X430860Y185560D01*
Y188878D01*
X430744Y189463D01*
X430412Y189959D01*
X428366Y192006D01*
X428362Y192504D01*
X428362D01*
Y195654D01*
Y199228D01*
X428362D01*
X428366Y199727D01*
X430412Y201773D01*
X430744Y202269D01*
X430860Y202854D01*
Y206185D01*
X432723D01*
Y201186D01*
D02*
G37*
%LPC*%
G36*
X446374Y324425D02*
X445087D01*
Y322941D01*
X446374D01*
Y324425D01*
D02*
G37*
G36*
X462370Y320562D02*
Y316852D01*
X464148D01*
Y318383D01*
X463974Y319255D01*
X463481Y319994D01*
X462742Y320488D01*
X462370Y320562D01*
D02*
G37*
G36*
X461370Y320562D02*
X460998Y320488D01*
X460259Y319994D01*
X459766Y319255D01*
X459592Y318383D01*
Y316852D01*
X461370D01*
Y320562D01*
D02*
G37*
G36*
X453657Y315862D02*
X452173D01*
Y314575D01*
X453657D01*
Y315862D01*
D02*
G37*
G36*
X451173D02*
X449689D01*
Y314575D01*
X451173D01*
Y315862D01*
D02*
G37*
G36*
X446831Y316143D02*
X445284D01*
Y313270D01*
X446831D01*
Y316143D01*
D02*
G37*
G36*
X477476Y319996D02*
X473827D01*
Y313000D01*
X477476D01*
Y319996D01*
D02*
G37*
G36*
X498024Y315862D02*
X494374D01*
Y313000D01*
X498024D01*
Y315862D01*
D02*
G37*
G36*
X472827Y319996D02*
X469177D01*
Y313000D01*
X472827D01*
Y319996D01*
D02*
G37*
G36*
X498024Y312000D02*
X494374D01*
Y309138D01*
X498024D01*
Y312000D01*
D02*
G37*
G36*
X477476D02*
X473827D01*
Y305004D01*
X477476D01*
Y312000D01*
D02*
G37*
G36*
X472827D02*
X469177D01*
Y305004D01*
X472827D01*
Y312000D01*
D02*
G37*
G36*
X431095Y270855D02*
X418783D01*
Y258544D01*
X431095D01*
Y270855D01*
D02*
G37*
G36*
X417783D02*
X405472D01*
Y258544D01*
X417783D01*
Y270855D01*
D02*
G37*
G36*
X431095Y257544D02*
X418783D01*
Y245233D01*
X431095D01*
Y257544D01*
D02*
G37*
G36*
X417783D02*
X405472D01*
Y245233D01*
X417783D01*
Y257544D01*
D02*
G37*
G36*
X419996Y206784D02*
X418512D01*
Y205496D01*
X419996D01*
Y206784D01*
D02*
G37*
%LPD*%
D11*
X478346Y250000D02*
X481299Y247047D01*
Y237697D02*
Y247047D01*
X458957Y293504D02*
X465531D01*
X452854Y278671D02*
X453248Y279065D01*
X447667Y278671D02*
X452854D01*
X447441Y278445D02*
X447667Y278671D01*
X453248Y279065D02*
Y279134D01*
X460433Y234449D02*
X463681Y237697D01*
X449803Y234449D02*
X460433D01*
X446949Y231594D02*
X449803Y234449D01*
X463681Y237697D02*
X471457D01*
X442579Y286969D02*
X442618Y287008D01*
X440453Y286969D02*
X442579D01*
X438953Y285469D02*
X440453Y286969D01*
X438953Y281081D02*
Y285469D01*
X434842Y231594D02*
X446949D01*
X482087Y249484D02*
X483268Y248302D01*
X482087Y249484D02*
Y249803D01*
X473279Y237843D02*
Y239910D01*
X471068Y242120D02*
X473279Y239910D01*
X469986Y242120D02*
X471068D01*
X473279Y237843D02*
X473425Y237697D01*
X469783Y242323D02*
X469986Y242120D01*
X477362Y237697D02*
Y242913D01*
X474508Y247047D02*
X474612Y246943D01*
Y245664D02*
X477362Y242913D01*
X474612Y245664D02*
Y246943D01*
X478543Y244562D02*
X479331Y243775D01*
Y237697D02*
Y243775D01*
X478543Y244562D02*
Y244882D01*
X433064Y233373D02*
X434842Y231594D01*
X438386Y229232D02*
X438435Y229281D01*
X442569D02*
X442618Y229331D01*
X434055Y229232D02*
X438386D01*
X438435Y229281D02*
X442569D01*
X433064Y233373D02*
Y234991D01*
X431079Y232209D02*
Y235008D01*
Y232209D02*
X434055Y229232D01*
X433047Y235008D02*
X433064Y234991D01*
X483268Y237697D02*
Y248302D01*
X445741Y276745D02*
X447441Y278445D01*
X441320Y276745D02*
X445741D01*
X445455Y281693D02*
X447488D01*
X442476Y278714D02*
X445455Y281693D01*
X441337Y274760D02*
X448186D01*
X441320Y274777D02*
X441337Y274760D01*
X448186D02*
X448241Y274705D01*
X441320Y278714D02*
X442476D01*
D13*
X387992Y251969D02*
D03*
X384842D02*
D03*
X387992Y249213D02*
D03*
X384842D02*
D03*
X387992Y246457D02*
D03*
X384842D02*
D03*
X387992Y243701D02*
D03*
X384842D02*
D03*
X403543Y227559D02*
D03*
X400394D02*
D03*
X403543Y230315D02*
D03*
X400394D02*
D03*
X414272Y318406D02*
D03*
X411122D02*
D03*
X444193Y302658D02*
D03*
X441043D02*
D03*
X463484Y300886D02*
D03*
X460335D02*
D03*
X504134Y312500D02*
D03*
X507283D02*
D03*
X504134Y321555D02*
D03*
X507283D02*
D03*
X444587Y322441D02*
D03*
X441437D02*
D03*
X494685Y208071D02*
D03*
X491535D02*
D03*
X488386Y201476D02*
D03*
X485236D02*
D03*
X498508Y190665D02*
D03*
X501657D02*
D03*
X504528Y174902D02*
D03*
X507677D02*
D03*
X461024Y223130D02*
D03*
X464173D02*
D03*
X453346Y243311D02*
D03*
X456496D02*
D03*
X453346Y240551D02*
D03*
X456496D02*
D03*
X453346Y253937D02*
D03*
X456496D02*
D03*
X453346Y251205D02*
D03*
X456496D02*
D03*
X453248Y261614D02*
D03*
X456398D02*
D03*
X453252Y264366D02*
D03*
X456402D02*
D03*
X453248Y271555D02*
D03*
X456398D02*
D03*
X453248Y274311D02*
D03*
X456398D02*
D03*
X453248Y279134D02*
D03*
X456398D02*
D03*
X384744Y267618D02*
D03*
X381594D02*
D03*
X384744Y270374D02*
D03*
X381594D02*
D03*
X438976Y184252D02*
D03*
X435827D02*
D03*
X432480Y173425D02*
D03*
X429331D02*
D03*
X435925Y208071D02*
D03*
X439075D02*
D03*
X433071Y216339D02*
D03*
X436220D02*
D03*
X485236Y195374D02*
D03*
X488386D02*
D03*
X478346Y173228D02*
D03*
X475197D02*
D03*
X468209Y195374D02*
D03*
X465059D02*
D03*
X475197Y193405D02*
D03*
X478346D02*
D03*
X475197Y198523D02*
D03*
X478346D02*
D03*
X390945Y208071D02*
D03*
X394094D02*
D03*
X381594Y214272D02*
D03*
X384744D02*
D03*
D15*
X427953Y225000D02*
D03*
Y221850D02*
D03*
X430709Y225000D02*
D03*
Y221850D02*
D03*
X422244Y225028D02*
D03*
Y221878D02*
D03*
X425000Y225000D02*
D03*
Y221850D02*
D03*
X418898Y225000D02*
D03*
Y221850D02*
D03*
X416142Y225000D02*
D03*
Y221850D02*
D03*
X401968Y306791D02*
D03*
Y309941D02*
D03*
X458957Y290354D02*
D03*
Y293504D02*
D03*
X451673Y314075D02*
D03*
Y310925D02*
D03*
X497638Y230217D02*
D03*
Y233366D02*
D03*
X499311Y220669D02*
D03*
Y223819D02*
D03*
X499213Y207874D02*
D03*
Y211024D02*
D03*
X416240Y189370D02*
D03*
Y192520D02*
D03*
X418996Y189370D02*
D03*
Y192520D02*
D03*
X384449Y220276D02*
D03*
Y217126D02*
D03*
X381890Y220276D02*
D03*
Y217126D02*
D03*
X456004Y226181D02*
D03*
Y229331D02*
D03*
X460925Y226181D02*
D03*
Y229331D02*
D03*
X428346Y290551D02*
D03*
Y293701D02*
D03*
X425591Y290551D02*
D03*
Y293701D02*
D03*
X420571Y290551D02*
D03*
Y293701D02*
D03*
X417815Y290551D02*
D03*
Y293701D02*
D03*
X410728Y290453D02*
D03*
Y293602D02*
D03*
X407972Y290453D02*
D03*
Y293602D02*
D03*
X405193Y290453D02*
D03*
Y293602D02*
D03*
X402461Y290453D02*
D03*
Y293602D02*
D03*
X448524Y187402D02*
D03*
Y184252D02*
D03*
X426378Y194291D02*
D03*
Y197441D02*
D03*
X448524Y204429D02*
D03*
Y207579D02*
D03*
X446555Y197441D02*
D03*
Y194291D02*
D03*
X451673Y197441D02*
D03*
Y194291D02*
D03*
X499213Y179331D02*
D03*
X489370Y185827D02*
D03*
Y182677D02*
D03*
X499213Y176181D02*
D03*
X464567Y182874D02*
D03*
Y186023D02*
D03*
X457283Y179921D02*
D03*
Y183071D02*
D03*
X419291Y174409D02*
D03*
Y177559D02*
D03*
X418012Y207283D02*
D03*
Y210433D02*
D03*
D16*
X418283Y258044D02*
D03*
D17*
X397614Y235008D02*
D03*
D18*
X399583D02*
D03*
X401551D02*
D03*
X403520D02*
D03*
X405488D02*
D03*
X407457D02*
D03*
X409425D02*
D03*
X411394D02*
D03*
X413362D02*
D03*
X415331D02*
D03*
X417299D02*
D03*
X419268D02*
D03*
X421236D02*
D03*
X423205D02*
D03*
X425173D02*
D03*
X427142D02*
D03*
X429110D02*
D03*
X431079D02*
D03*
X433047D02*
D03*
X435016D02*
D03*
X436984D02*
D03*
X438953D02*
D03*
Y281081D02*
D03*
X436984D02*
D03*
X435016D02*
D03*
X433047D02*
D03*
X431079D02*
D03*
X429110D02*
D03*
X427142D02*
D03*
X425173D02*
D03*
X423205D02*
D03*
X421236D02*
D03*
X419268D02*
D03*
X417299D02*
D03*
X415331D02*
D03*
X413362D02*
D03*
X411394D02*
D03*
X409425D02*
D03*
X407457D02*
D03*
X405488D02*
D03*
X403520D02*
D03*
X401551D02*
D03*
X399583D02*
D03*
X397614D02*
D03*
D19*
X441320Y237375D02*
D03*
Y239344D02*
D03*
Y241312D02*
D03*
Y243281D02*
D03*
Y245249D02*
D03*
Y247217D02*
D03*
Y249186D02*
D03*
Y251154D02*
D03*
Y253123D02*
D03*
Y255092D02*
D03*
Y257060D02*
D03*
Y259029D02*
D03*
Y260997D02*
D03*
Y262965D02*
D03*
Y264934D02*
D03*
Y266903D02*
D03*
Y268871D02*
D03*
Y270840D02*
D03*
Y272808D02*
D03*
Y274777D02*
D03*
Y276745D02*
D03*
Y278714D02*
D03*
X395247D02*
D03*
Y276745D02*
D03*
Y274777D02*
D03*
Y272808D02*
D03*
Y270840D02*
D03*
Y268871D02*
D03*
Y266903D02*
D03*
Y264934D02*
D03*
Y262965D02*
D03*
Y260997D02*
D03*
Y259029D02*
D03*
Y257060D02*
D03*
Y255092D02*
D03*
Y253123D02*
D03*
Y251154D02*
D03*
Y249186D02*
D03*
Y247217D02*
D03*
Y245249D02*
D03*
Y243281D02*
D03*
Y241312D02*
D03*
Y239344D02*
D03*
Y237375D02*
D03*
D20*
X465531Y262402D02*
D03*
X470532D02*
D03*
X475531D02*
D03*
X480532D02*
D03*
Y293504D02*
D03*
X475531D02*
D03*
X470532D02*
D03*
X465531D02*
D03*
D21*
X473327Y312500D02*
D03*
D22*
X498524Y321555D02*
D03*
Y312500D02*
D03*
Y303445D02*
D03*
D23*
X491671Y243664D02*
D03*
X493898Y241437D02*
D03*
X495146Y247177D02*
D03*
X497373Y244949D02*
D03*
X461417Y209252D02*
D03*
X459190Y211479D02*
D03*
X464961Y212697D02*
D03*
X462734Y214924D02*
D03*
D25*
X494783Y201772D02*
D03*
Y199803D02*
D03*
Y197835D02*
D03*
Y195866D02*
D03*
X502264D02*
D03*
Y197835D02*
D03*
Y199803D02*
D03*
Y201772D02*
D03*
D26*
X498524Y198819D02*
D03*
D27*
X510145Y181437D02*
D03*
D28*
Y188642D02*
D03*
X502454Y185039D02*
D03*
D29*
X389440Y174409D02*
D03*
Y179409D02*
D03*
Y184409D02*
D03*
Y189409D02*
D03*
Y194409D02*
D03*
Y199409D02*
D03*
Y204409D02*
D03*
X408465D02*
D03*
Y199409D02*
D03*
Y194409D02*
D03*
Y189409D02*
D03*
Y184409D02*
D03*
Y179409D02*
D03*
D30*
Y174409D02*
D03*
D34*
X396850Y293799D02*
D03*
Y290256D02*
D03*
D35*
X437205Y195866D02*
D03*
D36*
X434252Y190546D02*
D03*
D37*
X436220D02*
D03*
X438189D02*
D03*
X440158D02*
D03*
Y201186D02*
D03*
X438189D02*
D03*
X436220D02*
D03*
X434252D02*
D03*
D38*
X458268Y308661D02*
D03*
D39*
X465472D02*
D03*
X461870Y316352D02*
D03*
D40*
X444783Y316642D02*
D03*
D41*
X441043D02*
D03*
X437303D02*
D03*
Y308371D02*
D03*
X444783D02*
D03*
D42*
X476772Y184055D02*
D03*
D43*
X482092Y181102D02*
D03*
D44*
Y183071D02*
D03*
Y185039D02*
D03*
Y187008D02*
D03*
X471452D02*
D03*
Y185039D02*
D03*
Y183071D02*
D03*
Y181102D02*
D03*
D46*
X417323Y312008D02*
D03*
X408268D02*
D03*
Y305118D02*
D03*
X417323D02*
D03*
D51*
X446949Y231594D02*
D03*
Y228445D02*
D03*
X438386Y229232D02*
D03*
Y226083D02*
D03*
X422933Y303937D02*
D03*
Y307087D02*
D03*
X489468Y257480D02*
D03*
Y260630D02*
D03*
X493012Y257480D02*
D03*
Y260630D02*
D03*
X489468Y251378D02*
D03*
Y254528D02*
D03*
X493012Y251378D02*
D03*
Y254528D02*
D03*
X503150Y220571D02*
D03*
Y223721D02*
D03*
X502362Y211024D02*
D03*
Y207874D02*
D03*
X482677Y211221D02*
D03*
Y214370D02*
D03*
X485925Y211221D02*
D03*
Y214370D02*
D03*
X460138Y252461D02*
D03*
Y249311D02*
D03*
X392421Y290453D02*
D03*
Y293602D02*
D03*
X384842Y278839D02*
D03*
Y281988D02*
D03*
X381398D02*
D03*
Y278839D02*
D03*
X432972Y180118D02*
D03*
Y183268D02*
D03*
X429331Y176969D02*
D03*
Y180118D02*
D03*
X432677Y211221D02*
D03*
Y208071D02*
D03*
X429331Y211221D02*
D03*
Y214370D02*
D03*
X495768Y179626D02*
D03*
X482087Y195374D02*
D03*
Y192224D02*
D03*
X495768Y182775D02*
D03*
X492520Y185827D02*
D03*
Y182677D02*
D03*
X461417Y185827D02*
D03*
Y182677D02*
D03*
X471358Y195374D02*
D03*
Y192224D02*
D03*
X416043Y177559D02*
D03*
Y174409D02*
D03*
X414764Y210335D02*
D03*
Y207185D02*
D03*
D52*
X495177Y223819D02*
D03*
X492028D02*
D03*
X495177Y220571D02*
D03*
X492028D02*
D03*
X494685Y211221D02*
D03*
X491535D02*
D03*
X488386Y204626D02*
D03*
X485236D02*
D03*
X388189Y285335D02*
D03*
X391339D02*
D03*
X391339Y281988D02*
D03*
X388189D02*
D03*
X384842Y275689D02*
D03*
X387992D02*
D03*
X448524Y190551D02*
D03*
X445374D02*
D03*
X432776Y176870D02*
D03*
X435925D02*
D03*
X438976Y180118D02*
D03*
X435827D02*
D03*
X438976Y211221D02*
D03*
X435827D02*
D03*
X448524Y201280D02*
D03*
X445374D02*
D03*
X492520Y179823D02*
D03*
X489370D02*
D03*
X495669Y176181D02*
D03*
X492520D02*
D03*
X461417Y179823D02*
D03*
X464567D02*
D03*
X458268Y176181D02*
D03*
X461417D02*
D03*
X384941Y208071D02*
D03*
X388090D02*
D03*
X384744Y211417D02*
D03*
X381594D02*
D03*
D53*
X487992Y234941D02*
D03*
Y232972D02*
D03*
Y231004D02*
D03*
Y229035D02*
D03*
Y227067D02*
D03*
Y225098D02*
D03*
Y223130D02*
D03*
Y221161D02*
D03*
X468701D02*
D03*
Y223130D02*
D03*
Y225098D02*
D03*
Y227067D02*
D03*
Y229035D02*
D03*
Y231004D02*
D03*
Y232972D02*
D03*
Y234941D02*
D03*
D54*
X478346Y228051D02*
D03*
D55*
X471457Y237697D02*
D03*
X473425D02*
D03*
X475394D02*
D03*
X477362D02*
D03*
X479331D02*
D03*
X481299D02*
D03*
X483268D02*
D03*
X485236D02*
D03*
Y218406D02*
D03*
X483268D02*
D03*
X481299D02*
D03*
X479331D02*
D03*
X475394D02*
D03*
X471457D02*
D03*
X477362D02*
D03*
X473425D02*
D03*
D56*
X392520Y220472D02*
D03*
Y218504D02*
D03*
Y216535D02*
D03*
Y214567D02*
D03*
Y212598D02*
D03*
X408661Y220472D02*
D03*
Y218504D02*
D03*
Y216535D02*
D03*
Y214567D02*
D03*
Y212598D02*
D03*
D57*
X453150Y263882D02*
X453842Y264574D01*
Y261614D02*
Y264574D01*
X453248Y261614D02*
X453842D01*
X488386Y201476D02*
Y204626D01*
Y201476D02*
X488386D01*
X433071Y214370D02*
Y216339D01*
X501657Y190665D02*
X504437D01*
X505020Y191248D01*
Y191437D01*
X391196Y260039D02*
X392153Y260997D01*
X391043Y260039D02*
X391196D01*
X392153Y260997D02*
X395247D01*
X384842Y243701D02*
Y249213D01*
Y251969D01*
X384842Y251969D02*
X384842Y251969D01*
Y243701D02*
X384842Y243701D01*
X464555Y227744D02*
Y228585D01*
X464370Y227559D02*
X464555Y227744D01*
Y228585D02*
X466884Y230913D01*
X419268Y230634D02*
Y235008D01*
Y230634D02*
X420374Y229528D01*
X431090Y286405D02*
X431102Y286417D01*
X431079Y286394D02*
X431090Y286405D01*
X491240Y260630D02*
X493012D01*
X489468D02*
X491240D01*
X460115Y231223D02*
X460126Y231212D01*
X459941Y231398D02*
X460115Y231223D01*
X456004Y229331D02*
X458222D01*
X460126Y231235D01*
X453084Y241931D02*
X453346D01*
X451735Y243281D02*
X453084Y241931D01*
X419268Y281081D02*
Y290551D01*
X403827Y290453D02*
X405193D01*
X402461D02*
X403827D01*
X405488Y281081D02*
Y290453D01*
X386516Y281988D02*
X388189D01*
X384842D02*
X386516D01*
X384793Y269045D02*
Y275640D01*
X387992Y245079D02*
X392099Y249186D01*
X429331Y225000D02*
Y229602D01*
X416339Y225000D02*
X417299Y225961D01*
X417618Y225000D02*
X418898D01*
X416339D02*
X417618D01*
X403532Y230315D02*
Y234996D01*
X386729Y219407D02*
X387253D01*
X460126Y231212D02*
Y231235D01*
X458222Y229331D02*
X460925D01*
X460157Y231398D02*
X463700Y234941D01*
X468701D01*
X459941Y231398D02*
X460157D01*
X464370Y232087D02*
X464632D01*
X465518Y232972D01*
X468701D01*
X439264Y184736D02*
X439980D01*
X441712Y186468D02*
Y188050D01*
X439291Y187259D02*
Y187522D01*
X438212Y188601D02*
Y189453D01*
Y188601D02*
X439291Y187522D01*
X439980Y184736D02*
X441712Y186468D01*
X488386Y204626D02*
Y206496D01*
X486909Y207972D02*
X488386Y206496D01*
X502362Y207874D02*
X502669Y207567D01*
X503948D01*
X504984Y206532D01*
Y200796D02*
Y206532D01*
X504804Y223482D02*
X508303Y219983D01*
X503100Y223770D02*
X503388Y223482D01*
X504804D01*
X508303Y199839D02*
Y219983D01*
X502362Y211024D02*
X502681Y210705D01*
X502362Y211024D02*
X502362Y211024D01*
X502681Y210705D02*
X504748D01*
X506791Y208661D01*
Y200465D02*
Y208661D01*
X504331Y195866D02*
X508303Y199839D01*
X504169Y197843D02*
X506791Y200465D01*
X504000Y199811D02*
X504984Y200796D01*
X502748Y199811D02*
X504000D01*
X502272Y197843D02*
X504169D01*
X502264Y197835D02*
X502272Y197843D01*
X500787Y205118D02*
Y207874D01*
X456496Y251205D02*
Y253937D01*
Y240551D02*
Y243311D01*
X441468Y235008D02*
X441535Y234941D01*
X438953Y235008D02*
X441468D01*
X398524Y231594D02*
X400394Y229724D01*
Y227559D02*
Y229724D01*
X389440Y199409D02*
Y204409D01*
X381890Y217126D02*
X385749D01*
X387253Y219407D02*
X388121Y218539D01*
X392485D01*
X385749Y217126D02*
X386340Y216535D01*
X392520D01*
X392485Y218539D02*
X392520Y218504D01*
X384736Y219988D02*
X386147D01*
X384449Y220276D02*
X384736Y219988D01*
X381890Y220276D02*
X384449D01*
X386147Y219988D02*
X386729Y219407D01*
X379232Y231004D02*
X389705Y220532D01*
X392461D01*
X379232Y231004D02*
Y255217D01*
X392461Y220532D02*
X392520Y220472D01*
X408484Y189390D02*
X418976D01*
X408465Y189409D02*
X408484Y189390D01*
X418976D02*
X418996Y189370D01*
X439764Y197441D02*
X446555D01*
X439567Y197638D02*
X439764Y197441D01*
X435630Y194291D02*
X437205Y195866D01*
X478346Y193405D02*
Y198523D01*
X475197Y193405D02*
Y198523D01*
Y185630D02*
Y193405D01*
Y185630D02*
X476772Y184055D01*
X440158Y201257D02*
Y206693D01*
Y201210D02*
Y201257D01*
X440180Y201280D02*
X445374D01*
X440158Y201257D02*
X440180Y201280D01*
Y189453D02*
X440310D01*
X440158Y189475D02*
X440180Y189453D01*
X440158Y189475D02*
Y190546D01*
X440310Y189453D02*
X441712Y188050D01*
X445372Y190549D02*
X445374Y190551D01*
X436160Y187341D02*
X436198Y187379D01*
Y190524D01*
X438976Y184252D02*
Y184449D01*
X439264Y184736D01*
X433661Y186551D02*
Y188055D01*
X434229Y188623D01*
X433661Y186551D02*
X435476Y184736D01*
X436198Y190524D02*
X436220Y190546D01*
X434229Y188623D02*
Y190524D01*
X435539Y184736D02*
X435827Y184449D01*
X435476Y184736D02*
X435539D01*
X434229Y190524D02*
X434252Y190546D01*
X489173Y185827D02*
X492520D01*
X486508Y188492D02*
X489173Y185827D01*
X483163Y187008D02*
X483260Y187105D01*
X485269Y186221D02*
X485532D01*
X484111Y185062D02*
X485269Y186221D01*
X482092Y187008D02*
X483163D01*
X482114Y185062D02*
X484111D01*
X484591Y188492D02*
X486508D01*
X482092Y185039D02*
X482114Y185062D01*
X483260Y187105D02*
Y187161D01*
X484591Y188492D01*
X466281Y218570D02*
X467134Y217717D01*
X466281Y218570D02*
X467527Y219816D01*
X459190Y211479D02*
X466281Y218570D01*
X489370Y179823D02*
Y182382D01*
X484681Y181102D02*
X484984Y180799D01*
X486866D02*
X488457Y182390D01*
X489370D01*
X482092Y181102D02*
X484681D01*
X482092Y183071D02*
X485925D01*
X484984Y180799D02*
X486866D01*
X482092Y183071D02*
X482092Y183071D01*
X485925D02*
X485925Y183071D01*
X446555Y197441D02*
X451673D01*
X440160Y190549D02*
X445372D01*
X440158Y190546D02*
X440160Y190549D01*
X435827Y183268D02*
Y184449D01*
X432972Y183268D02*
X435827D01*
X438976Y183465D02*
X439272Y183760D01*
X446555Y194291D02*
X451673D01*
X493988Y233063D02*
X494193Y233268D01*
X487992Y232972D02*
X488083Y233063D01*
X494193Y233268D02*
X497539D01*
X488083Y233063D02*
X493988D01*
X497539Y233268D02*
X497638Y233366D01*
X451369Y263882D02*
X453150D01*
X441332Y262978D02*
X450464D01*
X451369Y263882D01*
X402953Y230315D02*
X403242Y230026D01*
X403256D02*
X403348D01*
X401968Y242126D02*
X405488Y238606D01*
X407457Y235008D02*
Y239860D01*
X406429Y240887D02*
Y241150D01*
Y240887D02*
X407457Y239860D01*
X409425Y235008D02*
Y237845D01*
X410335Y238754D02*
Y238878D01*
X409425Y237845D02*
X410335Y238754D01*
X405488Y235008D02*
Y238606D01*
X408957Y231496D02*
X409142Y231681D01*
X410796D02*
X411394Y232279D01*
X409142Y231681D02*
X410796D01*
X410433Y228248D02*
X410596D01*
X413362Y231014D01*
X415331Y228815D02*
Y235008D01*
X411417Y224902D02*
X415331Y228815D01*
X413362Y231014D02*
Y235008D01*
X411394Y232279D02*
Y235008D01*
X417299Y225961D02*
Y235008D01*
X387992Y249213D02*
Y250590D01*
X403348Y230026D02*
X403543Y229831D01*
Y227559D02*
Y229831D01*
X402953Y230315D02*
X403532D01*
X403520Y235008D02*
X403532Y234996D01*
X382256Y239201D02*
X402953Y218504D01*
X382256Y239201D02*
Y253964D01*
X402953Y218504D02*
X408661D01*
X402389Y216535D02*
X408661D01*
X380744Y238181D02*
X402389Y216535D01*
X380744Y238181D02*
Y254590D01*
X395247Y228769D02*
X403543Y220472D01*
X395247Y228769D02*
Y237375D01*
X403543Y220472D02*
X408661D01*
X429110Y284425D02*
X431079Y286394D01*
Y281081D02*
Y286394D01*
X429110Y281081D02*
Y284425D01*
X384793Y275640D02*
X384842Y275689D01*
X384744Y268996D02*
X384793Y269045D01*
X387992Y275689D02*
X389048Y276745D01*
X395247D01*
X384744Y268996D02*
X384807Y268933D01*
X395185D01*
X387992Y243701D02*
Y245079D01*
X392099Y249186D02*
X395247D01*
X388254Y250590D02*
X388818Y251154D01*
X387992Y250590D02*
X388254D01*
X388818Y251154D02*
X395247D01*
X423622Y225014D02*
X424986D01*
X423622D02*
Y225276D01*
X423205Y225693D02*
X423622Y225276D01*
X423205Y225693D02*
Y235008D01*
X424986Y225014D02*
X425000Y225000D01*
X429110Y229822D02*
X429331Y229602D01*
X429110Y229822D02*
Y235008D01*
X429331Y225000D02*
X430709D01*
X416142Y225000D02*
X416339D01*
X447835Y229331D02*
X456004D01*
X446949Y228445D02*
X447835Y229331D01*
X438386Y226083D02*
X444587D01*
X446563Y228059D01*
X430709Y225000D02*
X437303D01*
X438386Y226083D01*
X453346Y240551D02*
Y241931D01*
X441320Y243281D02*
X451735D01*
X453084Y252571D02*
X453346D01*
Y253937D01*
X451668Y251154D02*
X453084Y252571D01*
X441320Y251154D02*
X451668D01*
X441320Y262965D02*
X441332Y262978D01*
X445866Y271555D02*
X453248D01*
X444613Y272808D02*
X445866Y271555D01*
X441320Y272808D02*
X444613D01*
X453248Y271555D02*
Y274311D01*
X425591Y290551D02*
X426968D01*
X427142Y281081D02*
Y290551D01*
X426968D02*
X427142D01*
X417815D02*
X419193D01*
X419268D01*
X407457Y290453D02*
X407972D01*
X407457Y281081D02*
Y290453D01*
X407972D02*
X410728D01*
X405193D02*
X405488D01*
X415256Y288457D02*
X417299Y286414D01*
X413583Y287500D02*
Y296260D01*
X415256Y288457D02*
Y296260D01*
X422933Y303937D01*
X413583Y287500D02*
X415331Y285752D01*
X417299Y281081D02*
Y286414D01*
X410327Y299516D02*
X413583Y296260D01*
X434654Y316642D02*
X437303D01*
X432579Y314567D02*
X434654Y316642D01*
X432579Y300295D02*
Y314567D01*
X414559Y317921D02*
Y318118D01*
X417323Y312008D02*
Y315158D01*
X414559Y317921D02*
X417323Y315158D01*
X414272Y318406D02*
X414559Y318118D01*
X410327Y299516D02*
Y303551D01*
X408760Y305118D02*
X410327Y303551D01*
X408268Y305118D02*
X408760D01*
X403839D02*
X408268D01*
X415331Y281081D02*
Y285752D01*
X417323Y312008D02*
X417815D01*
X422350Y307472D01*
X422547D01*
X422933Y307087D01*
X402165Y306791D02*
X403839Y305118D01*
X401968Y306791D02*
X402165D01*
X425173Y232110D02*
X426378Y230906D01*
X425173Y232110D02*
Y235008D01*
X465484Y293551D02*
Y308650D01*
Y293551D02*
X465531Y293504D01*
X465472Y308661D02*
X465484Y308650D01*
X444574Y308161D02*
X444783Y308371D01*
X463484Y301083D02*
X465472Y303071D01*
Y308661D01*
X463484Y300886D02*
Y301083D01*
X494783Y201772D02*
Y211122D01*
X494685Y211221D02*
X494783Y211122D01*
X494636Y211270D02*
X494685Y211221D01*
X494636Y211270D02*
Y214419D01*
X494587Y214469D02*
X494636Y214419D01*
X495177Y218602D02*
X499213Y214567D01*
Y211024D02*
Y214567D01*
X500787Y207874D02*
X502362D01*
X499213D02*
X500787D01*
X501772Y179331D02*
X501870Y179429D01*
X499213Y179331D02*
X501772D01*
X435728Y173425D02*
X435728Y173425D01*
X432480Y173425D02*
X435728D01*
X456704Y194992D02*
Y195612D01*
Y194992D02*
X456890Y194807D01*
X452837Y199479D02*
X456704Y195612D01*
X495177Y218602D02*
Y220571D01*
X464862Y223130D02*
X468701D01*
X468610Y230913D02*
X468701Y231004D01*
X466884Y230913D02*
X468610D01*
X474508Y242323D02*
X475394Y241437D01*
Y237697D02*
Y241437D01*
X487992Y221161D02*
X491437D01*
X492028Y220571D01*
X491339Y223130D02*
X492028Y223819D01*
X487992Y223130D02*
X491339D01*
X489165Y236741D02*
X497373Y244949D01*
X487992Y234941D02*
X489075D01*
X489165Y235032D02*
Y236741D01*
X489075Y234941D02*
X489165Y235032D01*
X467527Y219816D02*
Y221071D01*
X467618Y221161D01*
X468701D01*
X432972Y208071D02*
X432972Y208071D01*
X438976Y207874D02*
Y211221D01*
X429331D02*
X430413D01*
X432776D01*
X435827D01*
X429331Y214370D02*
X433071D01*
X429331Y214370D02*
X429331Y214370D01*
X429331Y173425D02*
Y176969D01*
Y180118D02*
Y188878D01*
X426378Y191831D02*
X429331Y188878D01*
Y180118D02*
X429331Y180118D01*
X432972D01*
X435827D01*
X432776Y173721D02*
Y176870D01*
X426378Y191831D02*
Y194291D01*
Y197441D02*
Y199902D01*
X432972Y208071D02*
X435827D01*
X438976Y207874D02*
X440158Y206693D01*
X435827Y207874D02*
Y208071D01*
X438976Y180118D02*
Y183465D01*
X426378Y199902D02*
X429331Y202854D01*
X434252Y201186D02*
Y206299D01*
X429331Y202854D02*
Y211221D01*
X434252Y206299D02*
X435827Y207874D01*
X448524Y187402D02*
Y190551D01*
X450324Y199479D02*
X452837D01*
X448524Y201279D02*
X450324Y199479D01*
X445327Y201233D02*
X445374Y201279D01*
X448524Y201280D02*
Y204429D01*
X382231Y194409D02*
X389440D01*
X381758Y194882D02*
X382231Y194409D01*
X381496Y194882D02*
X381758D01*
X378831Y184260D02*
Y208653D01*
Y184260D02*
X383681Y179409D01*
X383587Y184687D02*
X389163D01*
X382874Y185138D02*
X383136D01*
X389163Y184687D02*
X389440Y184409D01*
X383136Y185138D02*
X383587Y184687D01*
X378831Y208653D02*
X381594Y211417D01*
X408363Y194308D02*
X408465Y194409D01*
X400787Y192028D02*
X403067Y194308D01*
X408363D01*
X408368Y184313D02*
X408465Y184409D01*
X402094Y184313D02*
X408368D01*
X400951Y183169D02*
X402094Y184313D01*
X400689Y183169D02*
X400951D01*
X389440Y174409D02*
Y179409D01*
X498524Y321555D02*
X504134D01*
X498524Y312500D02*
X504134D01*
X471358Y195374D02*
Y198031D01*
X471358Y198031D02*
X475984Y202658D01*
X495768Y179626D02*
X498917D01*
X384842Y278839D02*
X384967Y278714D01*
X395247D01*
X381398Y278839D02*
X384842D01*
X391339Y281988D02*
Y285335D01*
X391339Y281988D02*
X391339Y281988D01*
X394392Y285335D02*
X397614Y282112D01*
Y281081D02*
Y282112D01*
X391339Y285335D02*
X394392D01*
X392520Y293701D02*
X396752D01*
X396850Y293799D01*
X392421Y293602D02*
X392520Y293701D01*
X396850Y287308D02*
Y290256D01*
X399583Y281081D02*
Y284576D01*
X396850Y287308D02*
X399583Y284576D01*
X495226Y223770D02*
X499311D01*
X503100D01*
X502264Y195866D02*
X504331D01*
X495177Y223819D02*
X495226Y223770D01*
X499213Y207874D02*
X499213Y207874D01*
X499213Y211024D02*
X502362D01*
X491535Y208071D02*
Y211221D01*
X485236Y215059D02*
Y218406D01*
Y215059D02*
X485925Y214370D01*
X483268Y214961D02*
Y218406D01*
X482677Y214370D02*
X483268Y214961D01*
X485925Y211221D02*
X491535D01*
X492717Y199803D02*
X494783D01*
X491535Y200984D02*
X492717Y199803D01*
X491535Y200984D02*
Y208071D01*
X485395Y199742D02*
X487303Y197835D01*
X485236Y201476D02*
X485395Y201317D01*
X487303Y197835D02*
X494783D01*
X485395Y199742D02*
Y201317D01*
X485236Y201476D02*
Y204626D01*
X482677Y207185D02*
X485236Y204626D01*
X482677Y207185D02*
Y211221D01*
X485236Y204626D02*
X485236D01*
X495669Y176181D02*
X499213D01*
X482087Y195374D02*
Y200516D01*
X468209Y195374D02*
X471358D01*
X471405Y187030D02*
X471428Y187008D01*
X464567Y179823D02*
X464567Y179823D01*
Y182677D01*
X464764D01*
Y185827D02*
X465945Y187008D01*
X464764Y182677D02*
X466339Y181102D01*
X461417Y176181D02*
X469783D01*
X465945Y187008D02*
X471428D01*
X466339Y181102D02*
X471452D01*
X469783Y176181D02*
X472736Y173228D01*
X471428Y187008D02*
X471452D01*
X458268Y176181D02*
X458268Y176181D01*
Y179921D01*
X461417Y176181D02*
Y182677D01*
Y185827D02*
X464764D01*
X471405Y187030D02*
Y192178D01*
X471358Y192224D02*
X471405Y192178D01*
X472736Y173228D02*
X475197D01*
X478346D02*
X480807D01*
X483760Y176181D01*
X492520D01*
X482087Y195374D02*
X485236D01*
X482087Y192224D02*
X482089Y192222D01*
Y187010D02*
Y192222D01*
Y187010D02*
X482092Y187008D01*
X492520Y176181D02*
X492520Y176181D01*
Y179823D01*
Y182677D01*
X479331Y210634D02*
Y218406D01*
Y210634D02*
X479449Y210516D01*
X477362Y205240D02*
X482087Y200516D01*
X479449Y209831D02*
Y210516D01*
X477362Y205240D02*
Y218406D01*
X479449Y209831D02*
X479634Y209646D01*
X382256Y253964D02*
X383840Y255548D01*
X380744Y254590D02*
X383214Y257060D01*
X395247D01*
X383840Y255548D02*
X390613D01*
X392976Y253185D01*
X379232Y255217D02*
X386981Y262965D01*
X395247D01*
X392976Y253185D02*
X394153D01*
X422047Y185433D02*
Y211024D01*
X418504Y214567D02*
X422047Y211024D01*
X408661Y214567D02*
X418504D01*
X419291Y182677D02*
X422047Y185433D01*
X419291Y177559D02*
Y182677D01*
X419291Y177559D02*
X419291Y177559D01*
X416043Y177559D02*
X419291D01*
X408465Y174409D02*
X416043D01*
X408465D02*
Y179409D01*
X414813Y210384D02*
X417963D01*
X418012Y210433D01*
X414764Y210335D02*
X414813Y210384D01*
X408696Y212564D02*
X412535D01*
X414764Y210335D01*
X408661Y212598D02*
X408696Y212564D01*
X408465Y204409D02*
X411988D01*
X414764Y207185D01*
X408465Y199409D02*
Y204409D01*
X384744Y214280D02*
X385032Y214567D01*
X384744Y214272D02*
Y214280D01*
X385032Y214567D02*
X392520D01*
X384744Y211417D02*
Y214272D01*
X384744Y214272D02*
X384744Y214272D01*
X390945Y208071D02*
Y212515D01*
X391028Y212598D01*
X392520D01*
X388090Y208071D02*
X390945D01*
X384941Y205656D02*
Y208071D01*
X386187Y204409D02*
X389440D01*
X384941Y205656D02*
X386187Y204409D01*
X383681Y179409D02*
X389440D01*
X472335Y211713D02*
X472520Y211898D01*
Y212655D01*
X474697Y214531D02*
X475394Y215228D01*
Y218406D01*
X472728Y215347D02*
X473425Y216044D01*
X472520Y212655D02*
X472728Y212864D01*
Y215347D01*
X473425Y216044D02*
Y218406D01*
X474697Y212864D02*
Y214531D01*
D58*
X457874Y248524D02*
X458661Y249311D01*
X461614D01*
X444533Y248524D02*
X457874D01*
X443871Y249186D02*
X444533Y248524D01*
X462106Y249803D02*
Y270827D01*
X461614Y249311D02*
X462106Y249803D01*
Y270827D02*
X475531Y284252D01*
X465531Y267205D02*
X467717Y269390D01*
X465531Y262402D02*
Y267205D01*
X483130Y253405D02*
X483366Y253642D01*
X477028Y253405D02*
X483130D01*
X484508Y258425D02*
Y298563D01*
X459085Y236968D02*
X476546Y254429D01*
X475531Y284252D02*
Y293504D01*
X480512Y254429D02*
X484508Y258425D01*
X479213Y277351D02*
Y292185D01*
X473189Y271327D02*
X479213Y277351D01*
X470532Y293504D02*
Y298484D01*
X471654Y299606D02*
X483465D01*
X479213Y292185D02*
X480532Y293504D01*
X476546Y254429D02*
X480512D01*
X470532Y298484D02*
X471654Y299606D01*
X483465D02*
X484508Y298563D01*
X475531Y254862D02*
Y262402D01*
X449508Y237992D02*
X458661D01*
X475531Y254862D01*
X459567Y235945D02*
X477028Y253405D01*
X448660Y235945D02*
X459567D01*
X449084Y236968D02*
X459085D01*
X473189Y253996D02*
Y271327D01*
X465387Y246194D02*
X473189Y253996D01*
X445111Y246194D02*
X465387D01*
X441320Y247217D02*
X464836D01*
X470532Y252913D02*
Y262402D01*
X464836Y247217D02*
X470532Y252913D01*
X448277Y237776D02*
X449084Y236968D01*
X446188Y241312D02*
X449508Y237992D01*
X447230Y237375D02*
X448660Y235945D01*
X446709Y239344D02*
X448277Y237776D01*
X441320Y237375D02*
X447230D01*
X441320Y241312D02*
X446188D01*
X441320Y239344D02*
X446709D01*
X444166Y245249D02*
X445111Y246194D01*
X441320Y245249D02*
X444166D01*
X441320Y249186D02*
X443871D01*
D59*
X473228Y184153D02*
D03*
D60*
X437205Y199803D02*
D03*
D61*
X446998Y302756D02*
D03*
D62*
X506890Y190256D02*
D03*
D63*
X501230Y219439D02*
D03*
D64*
X495374Y256152D02*
D03*
D65*
X487549Y255955D02*
D03*
D66*
X491831Y322687D02*
D03*
D67*
X510630Y177903D02*
D03*
D68*
X371555Y226575D02*
D03*
Y216575D02*
D03*
Y196575D02*
D03*
Y186575D02*
D03*
Y206575D02*
D03*
Y318189D02*
D03*
Y308189D02*
D03*
Y288189D02*
D03*
Y278189D02*
D03*
Y298189D02*
D03*
D69*
Y176575D02*
D03*
Y268189D02*
D03*
D70*
X498465Y281752D02*
D03*
Y271752D02*
D03*
X508465Y281752D02*
D03*
Y291752D02*
D03*
X498465D02*
D03*
D71*
X508465Y271752D02*
D03*
D72*
X498524Y200984D02*
D03*
Y196654D02*
D03*
X414370Y300197D02*
D03*
X401575Y317913D02*
D03*
X502270Y202391D02*
D03*
X502454Y185039D02*
D03*
X492126Y192913D02*
D03*
X496063Y187008D02*
D03*
X494095Y228346D02*
D03*
X487205Y239173D02*
D03*
X488189Y241142D02*
D03*
X457677Y252953D02*
D03*
X457283Y267913D02*
D03*
X459646Y276575D02*
D03*
X427165Y297244D02*
D03*
X422244D02*
D03*
X403543D02*
D03*
X407480D02*
D03*
X429134Y218504D02*
D03*
X423228D02*
D03*
X417323D02*
D03*
X400591Y212598D02*
D03*
X389440Y189409D02*
D03*
X452756Y222441D02*
D03*
Y219488D02*
D03*
X455709D02*
D03*
Y222441D02*
D03*
X461614Y201772D02*
D03*
X458661D02*
D03*
X461614Y204724D02*
D03*
X458661D02*
D03*
X478346Y250000D02*
D03*
X476870Y269587D02*
D03*
X409425Y249186D02*
D03*
X415331Y263950D02*
D03*
X418283Y249186D02*
D03*
X427165Y257874D02*
D03*
X415331Y252139D02*
D03*
X409425Y263950D02*
D03*
X412378Y258044D02*
D03*
X418307Y266732D02*
D03*
X415354D02*
D03*
X409425Y252139D02*
D03*
X418283Y258044D02*
D03*
X409449Y266732D02*
D03*
X415331Y255092D02*
D03*
X427165Y249016D02*
D03*
Y254921D02*
D03*
X424189Y258044D02*
D03*
X421236Y260997D02*
D03*
X412378Y249186D02*
D03*
X421236D02*
D03*
X409425Y260997D02*
D03*
X418283Y263950D02*
D03*
X412378Y252139D02*
D03*
X421236Y255092D02*
D03*
X418283Y260997D02*
D03*
X412378Y255092D02*
D03*
X421236Y252139D02*
D03*
X427165Y251969D02*
D03*
X424189Y260997D02*
D03*
X415331D02*
D03*
X409425Y255092D02*
D03*
X421236Y258044D02*
D03*
X418283Y252139D02*
D03*
X412378Y263950D02*
D03*
X421260Y266732D02*
D03*
X427165Y260827D02*
D03*
X421236Y263950D02*
D03*
X427165Y266732D02*
D03*
X418283Y255092D02*
D03*
X424189Y249186D02*
D03*
X424189Y252139D02*
D03*
X409425Y258044D02*
D03*
X427165Y263779D02*
D03*
X415331Y249186D02*
D03*
X412402Y266732D02*
D03*
X424213D02*
D03*
X412378Y260997D02*
D03*
X424189Y255092D02*
D03*
Y263950D02*
D03*
X415331Y258044D02*
D03*
X391043Y260039D02*
D03*
X384842Y247835D02*
D03*
X464370Y227559D02*
D03*
X420374Y229528D02*
D03*
X459941Y231398D02*
D03*
X464370Y232087D02*
D03*
X439291Y187259D02*
D03*
X439567Y193996D02*
D03*
X434842Y197736D02*
D03*
Y193996D02*
D03*
X486909Y207972D02*
D03*
X500787Y205118D02*
D03*
X456496Y241931D02*
D03*
X441468Y235008D02*
D03*
X398524Y231594D02*
D03*
X386991Y219407D02*
D03*
X417618Y189370D02*
D03*
X416240Y199803D02*
D03*
Y197539D02*
D03*
Y202067D02*
D03*
X418898Y199803D02*
D03*
Y197539D02*
D03*
Y202067D02*
D03*
X437205Y195866D02*
D03*
X439567Y197638D02*
D03*
X478642Y186417D02*
D03*
X478543Y181693D02*
D03*
X474902D02*
D03*
Y186417D02*
D03*
X476772Y184055D02*
D03*
X478346Y195965D02*
D03*
X436160Y187341D02*
D03*
X485532Y186221D02*
D03*
X467134Y217717D02*
D03*
X485925Y183071D02*
D03*
X446555Y194291D02*
D03*
X494095Y233169D02*
D03*
X442618Y287008D02*
D03*
X453842Y264574D02*
D03*
X491240Y260630D02*
D03*
X480610Y273425D02*
D03*
Y269685D02*
D03*
X480532Y262402D02*
D03*
X465650Y321555D02*
D03*
X463386D02*
D03*
X458858D02*
D03*
X461122D02*
D03*
X456595D02*
D03*
X465650Y324213D02*
D03*
X463386D02*
D03*
X458858D02*
D03*
X461122D02*
D03*
X456595D02*
D03*
X467913D02*
D03*
X472441D02*
D03*
X470177D02*
D03*
X474705D02*
D03*
X476968D02*
D03*
X467913Y321555D02*
D03*
X472441D02*
D03*
X470177D02*
D03*
X474705D02*
D03*
X476968D02*
D03*
X402953Y230315D02*
D03*
X401968Y242126D02*
D03*
X406429Y241150D02*
D03*
X410335Y238878D02*
D03*
X408957Y231496D02*
D03*
X410433Y228248D02*
D03*
X411417Y224902D02*
D03*
X387992Y250590D02*
D03*
X431090Y286405D02*
D03*
X445866Y298228D02*
D03*
X448819D02*
D03*
X445866Y301181D02*
D03*
X448819D02*
D03*
Y304134D02*
D03*
X445866D02*
D03*
Y307087D02*
D03*
X448819D02*
D03*
X386516Y281988D02*
D03*
X384744Y268996D02*
D03*
X387992Y245079D02*
D03*
X423622Y225014D02*
D03*
X417618Y225000D02*
D03*
X429331Y225000D02*
D03*
X453346Y241931D02*
D03*
Y252571D02*
D03*
X453248Y271555D02*
D03*
X426968Y290551D02*
D03*
X419193D02*
D03*
X409350Y290453D02*
D03*
X403827D02*
D03*
X432579Y300295D02*
D03*
X426427Y230955D02*
D03*
X505020Y191437D02*
D03*
Y188681D02*
D03*
X494587Y214469D02*
D03*
X501181Y219193D02*
D03*
X502001Y179429D02*
D03*
X509547Y176870D02*
D03*
X511811Y176969D02*
D03*
X509547Y179134D02*
D03*
X511811Y179232D02*
D03*
X435728Y173425D02*
D03*
X456890Y194807D02*
D03*
X464862Y223130D02*
D03*
X496161Y256004D02*
D03*
X486909Y256102D02*
D03*
X482087Y249803D02*
D03*
X478543Y244882D02*
D03*
X474508Y242323D02*
D03*
X448524Y190551D02*
D03*
X381496Y194882D02*
D03*
X382874Y185138D02*
D03*
X400787Y192028D02*
D03*
X400689Y183169D02*
D03*
X493209Y321555D02*
D03*
X490945D02*
D03*
X486417D02*
D03*
X488681D02*
D03*
X484154D02*
D03*
X493209Y324213D02*
D03*
X490945D02*
D03*
X486417D02*
D03*
X488681D02*
D03*
X484154D02*
D03*
X475984Y202658D02*
D03*
X442618Y229331D02*
D03*
X479634Y209646D02*
D03*
X472335Y211713D02*
D03*
X467717Y269390D02*
D03*
X483366Y253642D02*
D03*
X469783Y242323D02*
D03*
X447441Y278445D02*
D03*
X447539Y281693D02*
D03*
X448241Y274705D02*
D03*
X474508Y247047D02*
D03*
X475091Y211713D02*
D03*
M02*
